<svg width="22" height="22" viewBox="0 0 22 22" fill="none" xmlns="http://www.w3.org/2000/svg">
    <path d="M11 0.120117C5.20156 0.120117 0.5 4.82168 0.5 10.6201C0.5 16.4186 5.20156 21.1201 11 21.1201C16.7984 21.1201 21.5 16.4186 21.5 10.6201C21.5 4.82168 16.7984 0.120117 11 0.120117ZM15.1367 13.8475L14.4664 14.7615C14.4518 14.7814 14.4335 14.7983 14.4124 14.811C14.3913 14.8238 14.3678 14.8323 14.3434 14.836C14.319 14.8397 14.2942 14.8386 14.2702 14.8326C14.2463 14.8267 14.2237 14.816 14.2039 14.8014L10.3273 11.9748C10.3032 11.9575 10.2836 11.9346 10.2701 11.9081C10.2566 11.8815 10.2497 11.8522 10.25 11.8225V5.37012C10.25 5.26699 10.3344 5.18262 10.4375 5.18262H11.5648C11.668 5.18262 11.7523 5.26699 11.7523 5.37012V11.1709L15.0945 13.5873C15.1789 13.6459 15.1977 13.7631 15.1367 13.8475Z" fill="#FF8743"/>
</svg>
