<svg width="70" height="70" viewBox="0 0 70 70" fill="none" xmlns="http://www.w3.org/2000/svg">
    <path d="M53 28V21M53 21V14M53 21H60M53 21H46" stroke="#B4213B" stroke-width="4" stroke-linecap="square"/>
    <path d="M27 32C22.0293 32 18 27.9705 18 23C18 18.0295 22.0293 14 27 14C31.9707 14 36 18.0295 36 23C36 27.9705 31.9707 32 27 32Z" stroke="#B4213B" stroke-width="4" stroke-linecap="square" stroke-linejoin="round"/>
    <path d="M44 58V55C44 47.268 37.732 41 30 41H18.5C13.8056 41 10 44.8056 10 49.5V49.5C10 54.1944 13.8056 58 18.5 58H34.65" stroke="#B4213B" stroke-width="4" stroke-linecap="square" stroke-linejoin="round"/>
</svg>
