<svg width="24" height="20" viewBox="0 0 24 20" fill="none" xmlns="http://www.w3.org/2000/svg">
    <path d="M16.3621 8.61652L16.3621 8.61655L16.362 8.6163L14.1567 4.75773C14.3724 4.39207 14.5 3.96375 14.5 3.5C14.5 2.11959 13.3804 1 12 1C10.6196 1 9.5 2.11959 9.5 3.5C9.5 3.96375 9.62757 4.39207 9.84333 4.75773L7.63804 8.6163L7.6379 8.61655L5.99943 7.63302C6.00187 7.58916 6.00313 7.54482 6.00313 7.5C6.00313 6.11959 4.88353 5 3.50312 5C2.12543 5 1 6.11688 1 7.5C1 8.72371 1.87983 9.74245 3.04124 9.95797L4.96846 15.0972C4.40286 15.3122 4 15.8598 4 16.5V17.5C4 18.3273 4.67271 19 5.5 19H18.5C19.3273 19 20 18.3273 20 17.5V16.5C20 15.8598 19.5971 15.3122 19.0315 15.0972L20.9588 9.95797C22.1202 9.74246 23 8.72371 23 7.5C23 6.11959 21.8804 5 20.5 5C19.1196 5 18 6.11959 18 7.5C18 7.54461 18.0012 7.5888 18.0036 7.63258L16.3621 8.61652Z" fill="url(#paint0_linear_503_691)" stroke="white" stroke-width="2"/>
    <defs>
        <linearGradient id="paint0_linear_503_691" x1="24.2449" y1="15.8667" x2="1.44127" y2="15.0563" gradientUnits="userSpaceOnUse">
            <stop stop-color="#FF3389"/>
            <stop offset="1" stop-color="#FF7527"/>
        </linearGradient>
    </defs>
</svg>
