<svg width="52" height="61" viewBox="0 0 52 61" fill="none" xmlns="http://www.w3.org/2000/svg">
<path d="M25.1619 57.0455L25.1619 57.0456L26 58.3331L26.8381 57.0456L26.8381 57.0455L26.8385 57.0448L26.8406 57.0417L26.8494 57.0283L26.8852 56.9737C26.9171 56.9254 26.9645 56.8538 27.0259 56.762C27.1486 56.5784 27.3268 56.3145 27.5474 55.9957C27.9891 55.357 28.5974 54.5023 29.2672 53.6323C29.9398 52.7586 30.6601 51.8883 31.3262 51.2092C31.6594 50.8695 31.9645 50.5926 32.2311 50.3906C32.5106 50.1788 32.6885 50.0951 32.7703 50.0722C43.2872 47.1201 51 37.4621 51 26C51 12.1929 39.8071 1 26 1C12.1929 1 1 12.1929 1 26C1 37.4621 8.71284 47.1201 19.2298 50.0722C19.3115 50.0951 19.4894 50.1788 19.7689 50.3906C20.0355 50.5926 20.3406 50.8695 20.6738 51.2092C21.3399 51.8883 22.0602 52.7586 22.7328 53.6323C23.4026 54.5022 24.0109 55.357 24.4526 55.9957C24.6732 56.3145 24.8514 56.5784 24.9741 56.762C25.0355 56.8538 25.0829 56.9254 25.1148 56.9737L25.1506 57.0283L25.1594 57.0417L25.1615 57.0448L25.1619 57.0455Z" fill="white" stroke="url(#paint0_linear_5_14562)" stroke-width="2"/>
<defs>
<linearGradient id="paint0_linear_5_14562" x1="55.3878" y1="49.2333" x2="0.624276" y2="47.8622" gradientUnits="userSpaceOnUse">
<stop stop-color="#FF3389"/>
<stop offset="1" stop-color="#FF7527"/>
</linearGradient>
</defs>
</svg>
