<svg width="151" height="150" viewBox="0 0 151 150" fill="none" xmlns="http://www.w3.org/2000/svg">
    <defs>
        <filter id="filter0_d_5_28203" x="0.5" y="0" width="150" height="150" filterUnits="userSpaceOnUse" color-interpolation-filters="sRGB">
            <feFlood flood-opacity="0" result="BackgroundImageFix"/>
            <feColorMatrix in="SourceAlpha" type="matrix" values="0 0 0 0 0 0 0 0 0 0 0 0 0 0 0 0 0 0 127 0" result="hardAlpha"/>
            <feOffset dy="12"/>
            <feGaussianBlur stdDeviation="7.5"/>
            <feComposite in2="hardAlpha" operator="out"/>
            <feColorMatrix type="matrix" values="0 0 0 0 0.678431 0 0 0 0 0.145098 0 0 0 0 0.286275 0 0 0 0.35 0"/>
            <feBlend mode="normal" in2="BackgroundImageFix" result="effect1_dropShadow_5_28203"/>
            <feBlend mode="normal" in="SourceGraphic" in2="effect1_dropShadow_5_28203" result="shape"/>
        </filter>
        <filter id="filter1_d_5_28203" x="45.5" y="33" width="64" height="64" filterUnits="userSpaceOnUse" color-interpolation-filters="sRGB">
            <feFlood flood-opacity="0" result="BackgroundImageFix"/>
            <feColorMatrix in="SourceAlpha" type="matrix" values="0 0 0 0 0 0 0 0 0 0 0 0 0 0 0 0 0 0 127 0" result="hardAlpha"/>
            <feOffset dx="2" dy="2"/>
            <feGaussianBlur stdDeviation="2.5"/>
            <feComposite in2="hardAlpha" operator="out"/>
            <feColorMatrix type="matrix" values="0 0 0 0 0.658333 0 0 0 0 0.151965 0 0 0 0 0.200876 0 0 0 0.3 0"/>
            <feBlend mode="normal" in2="BackgroundImageFix" result="effect1_dropShadow_5_28203"/>
            <feBlend mode="normal" in="SourceGraphic" in2="effect1_dropShadow_5_28203" result="shape"/>
        </filter>
        <linearGradient id="paint0_linear_5_28203" x1="44" y1="7.5" x2="146" y2="174" gradientUnits="userSpaceOnUse">
            <stop stop-color="#DC3055"/>
            <stop offset="1" stop-color="#851D40"/>
        </linearGradient>
    </defs>

    <g filter="url(#filter0_d_5_28203)">
        <path d="M135.5 63C135.5 78.913 129.179 94.1742 117.926 105.426C106.674 116.679 91.413 123 75.5 123C59.587 123 44.3258 116.679 33.0736 105.426C21.8214 94.1742 15.5 78.913 15.5 63C15.5 47.087 21.8214 31.8258 33.0736 20.5736C44.3258 9.32141 59.587 3 75.5 3C91.413 3 106.674 9.32141 117.926 20.5736C129.179 31.8258 135.5 47.087 135.5 63Z" fill="url(#paint0_linear_5_28203)"/>
    </g>
    <path opacity="0.2" d="M35.9844 28.9346C43.2512 20.6271 52.9514 14.8212 63.7065 12.3418" stroke="white" stroke-width="8" stroke-linecap="round"/>
    <path opacity="0.2" d="M26.1036 45.7167C26.9526 43.3585 27.9693 41.0642 29.146 38.8513" stroke="white" stroke-width="8" stroke-linecap="round"/>
    <g filter="url(#filter1_d_5_28203)">
        <path d="M81.8389 62.9962L101.17 43.7071C102.017 42.8604 102.492 41.7121 102.492 40.5147C102.492 39.3173 102.017 38.169 101.17 37.3223C100.324 36.4757 99.1755 36 97.9783 36C96.7811 36 95.6329 36.4757 94.7864 37.3223L75.5 56.6564L56.2136 37.3223C55.3671 36.4757 54.2189 36 53.0217 36C51.8245 36 50.6764 36.4757 49.8298 37.3223C48.9833 38.169 48.5077 39.3173 48.5077 40.5147C48.5077 41.7121 48.9833 42.8604 49.8298 43.7071L69.1611 62.9962L49.8298 82.2853C49.4084 82.7033 49.074 83.2006 48.8457 83.7485C48.6175 84.2964 48.5 84.8841 48.5 85.4776C48.5 86.0712 48.6175 86.6589 48.8457 87.2068C49.074 87.7547 49.4084 88.252 49.8298 88.67C50.2477 89.0914 50.745 89.4259 51.2928 89.6542C51.8406 89.8825 52.4282 90 53.0217 90C53.6152 90 54.2028 89.8825 54.7506 89.6542C55.2985 89.4259 55.7957 89.0914 56.2136 88.67L75.5 69.3359L94.7864 88.67C95.2043 89.0914 95.7015 89.4259 96.2494 89.6542C96.7972 89.8825 97.3848 90 97.9783 90C98.5718 90 99.1594 89.8825 99.7072 89.6542C100.255 89.4259 100.752 89.0914 101.17 88.67C101.592 88.252 101.926 87.7547 102.154 87.2068C102.382 86.6589 102.5 86.0712 102.5 85.4776C102.5 84.8841 102.382 84.2964 102.154 83.7485C101.926 83.2006 101.592 82.7033 101.17 82.2853L81.8389 62.9962Z" fill="white"/>
    </g>
</svg>
