<svg width="24" height="24" viewBox="0 0 24 24" fill="none" xmlns="http://www.w3.org/2000/svg">
<path d="M18 16.0161C19.245 16.5451 20 17.2391 20 18.0001C20 19.6571 16.418 21.0001 12 21.0001C7.582 21.0001 4 19.6571 4 18.0001C4 17.2401 4.755 16.5441 6 16.0161" stroke="white" stroke-width="2" stroke-linecap="round" stroke-linejoin="round"/>
<path fill-rule="evenodd" clip-rule="evenodd" d="M11.262 17.675L12 17L11.262 17.675ZM12.738 17.675L12.743 17.67L12.755 17.656L12.8 17.606L12.966 17.42C13.7969 16.4737 14.5806 15.4868 15.314 14.463C15.956 13.563 16.614 12.543 17.115 11.53C17.605 10.54 18 9.451 18 8.444C18 4.871 15.382 2 12 2C8.618 2 6 4.87 6 8.444C6 9.451 6.395 10.54 6.885 11.53C7.386 12.543 8.045 13.563 8.685 14.463C9.46744 15.5542 10.3069 16.6033 11.2 17.606L11.245 17.656L11.257 17.67L11.262 17.675C11.3557 17.7775 11.4697 17.8593 11.5968 17.9153C11.7238 17.9713 11.8612 18.0002 12 18.0002C12.1388 18.0002 12.2762 17.9713 12.4032 17.9153C12.5303 17.8593 12.6443 17.7775 12.738 17.675ZM12 17L12.738 17.674L12 17ZM12 6C11.4696 6 10.9609 6.21071 10.5858 6.58579C10.2107 6.96086 10 7.46957 10 8C10 8.53043 10.2107 9.03914 10.5858 9.41421C10.9609 9.78929 11.4696 10 12 10C12.5304 10 13.0391 9.78929 13.4142 9.41421C13.7893 9.03914 14 8.53043 14 8C14 7.46957 13.7893 6.96086 13.4142 6.58579C13.0391 6.21071 12.5304 6 12 6Z" fill="white"/>
</svg>
