<svg width="25" height="24" viewBox="0 0 25 24" fill="none" xmlns="http://www.w3.org/2000/svg">
<path d="M24.245 12.27C24.245 11.48 24.175 10.73 24.055 10H12.755V14.51H19.225C18.935 15.99 18.085 17.24 16.825 18.09V21.09H20.685C22.945 19 24.245 15.92 24.245 12.27Z" fill="#4285F4"/>
<path d="M12.755 24C15.995 24 18.705 22.92 20.685 21.09L16.825 18.09C15.745 18.81 14.375 19.25 12.755 19.25C9.62504 19.25 6.97505 17.14 6.02505 14.29H2.04504V17.38C4.01504 21.3 8.06504 24 12.755 24Z" fill="#34A853"/>
<path d="M6.025 14.29C5.775 13.57 5.645 12.8 5.645 12C5.645 11.2 5.785 10.43 6.025 9.71V6.62H2.045C1.225 8.24 0.755005 10.06 0.755005 12C0.755005 13.94 1.225 15.76 2.045 17.38L6.025 14.29Z" fill="#FBBC05"/>
<path d="M12.755 4.75C14.525 4.75 16.105 5.36 17.355 6.55L20.775 3.13C18.705 1.19 15.995 0 12.755 0C8.06504 0 4.01504 2.7 2.04504 6.62L6.02505 9.71C6.97505 6.86 9.62504 4.75 12.755 4.75Z" fill="#EA4335"/>
</svg>
