<svg width="151" height="151" viewBox="0 0 151 151" fill="none" xmlns="http://www.w3.org/2000/svg">
<g filter="url(#filter0_d_5_43361)">
<path d="M75.5 123.142C108.637 123.142 135.5 96.2787 135.5 63.1416C135.5 30.0045 108.637 3.1416 75.5 3.1416C42.3629 3.1416 15.5 30.0045 15.5 63.1416C15.5 96.2787 42.3629 123.142 75.5 123.142Z" fill="url(#paint0_linear_5_43361)"/>
</g>
<path opacity="0.2" d="M39.1954 29.5488C46.4621 21.2414 56.1623 15.4354 66.9174 12.956" stroke="white" stroke-width="8" stroke-linecap="round"/>
<path opacity="0.2" d="M29.3145 46.3309C30.1635 43.9728 31.1802 41.6785 32.357 39.4656" stroke="white" stroke-width="8" stroke-linecap="round"/>
<path d="M88.7385 64.3486C88.7385 64.3486 90.269 70.2217 97.5979 70.2093C99.5004 70.266 101.374 69.7334 102.962 68.6843C104.55 67.6352 105.775 66.1209 106.47 64.3486" stroke="black" stroke-width="5" stroke-linecap="round" stroke-linejoin="round"/>
<path d="M44.5295 64.3486C44.5295 64.3486 46.06 70.2217 53.3889 70.2093C55.2898 70.2653 57.1614 69.7321 58.7474 68.683C60.3334 67.6338 61.5562 66.1199 62.2483 64.3486" stroke="black" stroke-width="5" stroke-linecap="round" stroke-linejoin="round"/>
<path d="M62.4236 96.8498C62.4236 96.8498 73.4232 87.6296 88.5538 96.8498" stroke="#5B0600" stroke-width="4" stroke-linecap="round" stroke-linejoin="round"/>
<path d="M119.053 0.466043C119.053 0.466043 130.352 17.8862 133.562 27.0442C136.697 36.028 134.532 45.8953 126.096 50.213C124.085 51.2446 121.89 51.8698 119.637 52.0529C117.384 52.236 115.117 51.9733 112.965 51.28C110.813 50.5867 108.82 49.4763 107.097 48.0122C105.375 46.5482 103.958 44.7591 102.927 42.7473C100.327 37.6705 100.974 32.009 102.927 27.0816C107.618 15.1985 117.423 0.503372 117.423 0.503372C117.538 0.287489 117.731 0.124176 117.963 0.0476356C118.195 -0.028905 118.447 -0.0127384 118.668 0.0927522C118.828 0.180025 118.961 0.309032 119.053 0.466043Z" fill="#45B1FF"/>
<defs>
<filter id="filter0_d_5_43361" x="0.5" y="0.141602" width="150" height="150" filterUnits="userSpaceOnUse" color-interpolation-filters="sRGB">
<feFlood flood-opacity="0" result="BackgroundImageFix"/>
<feColorMatrix in="SourceAlpha" type="matrix" values="0 0 0 0 0 0 0 0 0 0 0 0 0 0 0 0 0 0 127 0" result="hardAlpha"/>
<feOffset dy="12"/>
<feGaussianBlur stdDeviation="7.5"/>
<feComposite in2="hardAlpha" operator="out"/>
<feColorMatrix type="matrix" values="0 0 0 0 0.925 0 0 0 0 0.572026 0 0 0 0 0.186542 0 0 0 0.35 0"/>
<feBlend mode="normal" in2="BackgroundImageFix" result="effect1_dropShadow_5_43361"/>
<feBlend mode="normal" in="SourceGraphic" in2="effect1_dropShadow_5_43361" result="shape"/>
</filter>
<linearGradient id="paint0_linear_5_43361" x1="112.711" y1="116.615" x2="37.7109" y2="7.61486" gradientUnits="userSpaceOnUse">
<stop stop-color="#F59338"/>
<stop offset="1" stop-color="#F8D32C"/>
</linearGradient>
</defs>
</svg>
