<svg width="247" height="248" viewBox="0 0 247 248" fill="none" xmlns="http://www.w3.org/2000/svg">
<g clip-path="url(#clip0_5_14573)">
<path d="M205.077 46.9654C204.692 49.0073 205.457 50.9851 207.371 52.8991C210.242 55.77 218.678 57.1482 221.86 53.9659C225.043 50.7836 226.888 48.938 230.003 45.8233C233.118 42.7085 232.287 38.0938 230.102 35.9093C227.165 32.9725 224.229 30.0356 221.292 27.0987C220.024 25.8309 217.969 25.828 216.698 27.0924C215.431 28.3522 215.425 30.4004 216.685 31.6673C216.687 31.6694 216.689 31.6715 216.691 31.6737L216.763 31.7454" fill="white"/>
<path d="M205.077 46.9654C204.692 49.0073 205.457 50.9851 207.371 52.8991C210.242 55.77 218.678 57.1482 221.86 53.9659C225.043 50.7836 226.888 48.938 230.003 45.8233C233.118 42.7085 232.287 38.0938 230.102 35.9093C227.165 32.9725 224.229 30.0356 221.292 27.0987C220.024 25.8309 217.969 25.828 216.698 27.0924C215.431 28.3522 215.425 30.4004 216.685 31.6673C216.687 31.6694 216.689 31.6715 216.691 31.6737L216.763 31.7454" stroke="#3F3831" stroke-width="2" stroke-linecap="round"/>
<path d="M207.665 47.5766L192.262 32.1738C191.006 30.9174 191.006 28.8804 192.262 27.624C193.519 26.3676 195.556 26.3677 196.812 27.6241L208.115 38.9275" fill="white"/>
<path d="M207.665 47.5766L192.262 32.1738C191.006 30.9174 191.006 28.8804 192.262 27.624C193.519 26.3676 195.556 26.3677 196.812 27.6241L208.115 38.9275" stroke="#3F3831" stroke-width="2" stroke-linecap="round"/>
<path d="M207.58 38.0797L207.079 44.0795L212.079 42.5796L216.579 31.5796L207.58 38.0797Z" fill="white"/>
<path d="M208.364 39.1759L205.4 36.2114C204.305 35.1163 204.305 33.3407 205.4 32.2456C206.495 31.1506 208.271 31.1506 209.366 32.2456L212.632 35.5122" fill="white"/>
<path d="M208.364 39.1759L205.4 36.2114C204.305 35.1163 204.305 33.3407 205.4 32.2456C206.495 31.1506 208.271 31.1506 209.366 32.2456L212.632 35.5122" stroke="#3F3831" stroke-width="2" stroke-linecap="round" stroke-linejoin="round"/>
<path d="M212.778 35.693L210.763 33.6772C209.667 32.5821 209.667 30.8066 210.763 29.7115C211.858 28.6164 213.633 28.6164 214.728 29.7115L216.988 31.9712" fill="white"/>
<path d="M212.778 35.693L210.763 33.6772C209.667 32.5821 209.667 30.8066 210.763 29.7115C211.858 28.6164 213.633 28.6164 214.728 29.7115L216.988 31.9712" stroke="#3F3831" stroke-width="2" stroke-linecap="round" stroke-linejoin="round"/>
<path d="M197.464 27.4497L213.727 11.1863L197.464 27.4497Z" fill="white"/>
<path d="M197.464 27.4497L213.727 11.1863" stroke="#3F3831" stroke-width="2" stroke-linecap="round"/>
<path d="M213.374 17.904L213.492 15.6648L213.727 11.1865L209.249 11.4222L207.01 11.54" stroke="#3F3831" stroke-width="2" stroke-linecap="round" stroke-linejoin="round"/>
</g>
<g clip-path="url(#clip1_5_14573)">
<path d="M46.5081 205.535C48.55 205.151 50.5278 205.915 52.4418 207.829C55.3127 210.7 56.691 219.136 53.5086 222.319C50.3264 225.501 48.4807 227.347 45.366 230.461C42.2512 233.576 37.6365 232.745 35.452 230.561C32.5152 227.624 29.5784 224.687 26.6415 221.75C25.3736 220.482 25.3707 218.428 26.6351 217.156C27.8949 215.889 29.9432 215.884 31.21 217.143C31.2121 217.145 31.2143 217.148 31.2164 217.15L31.2881 217.222" fill="white"/>
<path d="M46.5081 205.535C48.55 205.151 50.5278 205.915 52.4418 207.829C55.3127 210.7 56.691 219.136 53.5086 222.319C50.3264 225.501 48.4807 227.347 45.366 230.461C42.2512 233.576 37.6365 232.745 35.452 230.561C32.5152 227.624 29.5784 224.687 26.6415 221.75C25.3736 220.482 25.3707 218.428 26.6351 217.156C27.8949 215.889 29.9432 215.884 31.21 217.143C31.2121 217.145 31.2143 217.148 31.2164 217.15L31.2881 217.222" stroke="#3F3831" stroke-width="2" stroke-linecap="round"/>
<path d="M47.1193 208.124L31.7165 192.721C30.4601 191.465 28.4231 191.465 27.1667 192.721C25.9104 193.978 25.9104 196.015 27.1668 197.271L38.4702 208.574" fill="white"/>
<path d="M47.1193 208.124L31.7165 192.721C30.4601 191.465 28.4231 191.465 27.1667 192.721C25.9104 193.978 25.9104 196.015 27.1668 197.271L38.4702 208.574" stroke="#3F3831" stroke-width="2" stroke-linecap="round"/>
<path d="M37.6224 208.039L43.6223 207.538L42.1223 212.538L31.1223 217.038L37.6224 208.039Z" fill="white"/>
<path d="M38.7188 208.823L35.7542 205.858C34.6591 204.763 32.8836 204.763 31.7885 205.858C30.6934 206.953 30.6934 208.729 31.7885 209.824L35.055 213.091" fill="white"/>
<path d="M38.7188 208.823L35.7542 205.858C34.6591 204.763 32.8836 204.763 31.7885 205.858C30.6934 206.953 30.6934 208.729 31.7885 209.824L35.055 213.091" stroke="#3F3831" stroke-width="2" stroke-linecap="round" stroke-linejoin="round"/>
<path d="M35.2357 213.237L33.2199 211.221C32.1248 210.126 30.3493 210.126 29.2542 211.221C28.1591 212.316 28.1591 214.092 29.2542 215.187L31.514 217.447" fill="white"/>
<path d="M35.2357 213.237L33.2199 211.221C32.1248 210.126 30.3493 210.126 29.2542 211.221C28.1591 212.316 28.1591 214.092 29.2542 215.187L31.514 217.447" stroke="#3F3831" stroke-width="2" stroke-linecap="round" stroke-linejoin="round"/>
<path d="M26.9924 197.922L10.729 214.186L26.9924 197.922Z" fill="white"/>
<path d="M26.9924 197.922L10.729 214.186" stroke="#3F3831" stroke-width="2" stroke-linecap="round"/>
<path d="M17.4465 213.832L15.2073 213.95L10.729 214.186L10.9646 209.707L11.0825 207.468" stroke="#3F3831" stroke-width="2" stroke-linecap="round" stroke-linejoin="round"/>
</g>
<defs>
<clipPath id="clip0_5_14573">
<rect width="48" height="48" fill="white" transform="translate(179.079 34.521) rotate(-45)"/>
</clipPath>
<clipPath id="clip1_5_14573">
<rect width="48" height="48" fill="white" transform="matrix(-0.707107 0.707107 0.707107 0.707107 34.0635 179.538)"/>
</clipPath>
</defs>
</svg>
