<svg width="69" height="69" viewBox="0 0 69 69" fill="none" xmlns="http://www.w3.org/2000/svg">
<g clip-path="url(#clip0_5_14583)">
<path d="M46.5081 26.5354C48.55 26.1507 50.5278 26.9153 52.4418 28.8293C55.3127 31.7001 56.691 40.1365 53.5086 43.3188C50.3264 46.5011 48.4807 48.3467 45.366 51.4614C42.2512 54.5763 37.6365 53.7453 35.452 51.5608C32.5152 48.624 29.5784 45.6871 26.6415 42.7502C25.3736 41.4824 25.3707 39.4276 26.6351 38.1562C27.8949 36.8893 29.9432 36.8836 31.21 38.1434C31.2121 38.1455 31.2143 38.1476 31.2164 38.1497L31.2881 38.2215" fill="white"/>
<path d="M46.5081 26.5354C48.55 26.1507 50.5278 26.9153 52.4418 28.8293C55.3127 31.7001 56.691 40.1365 53.5086 43.3188C50.3264 46.5011 48.4807 48.3467 45.366 51.4614C42.2512 54.5763 37.6365 53.7453 35.452 51.5608C32.5152 48.624 29.5784 45.6871 26.6415 42.7502C25.3736 41.4824 25.3707 39.4276 26.6351 38.1562C27.8949 36.8893 29.9432 36.8836 31.21 38.1434C31.2121 38.1455 31.2143 38.1476 31.2164 38.1497L31.2881 38.2215" stroke="#3F3831" stroke-width="2" stroke-linecap="round"/>
<path d="M47.1193 29.124L31.7165 13.7212C30.4601 12.4648 28.4231 12.4648 27.1667 13.7212C25.9104 14.9776 25.9104 17.0145 27.1668 18.2709L38.4702 29.5743" fill="white"/>
<path d="M47.1193 29.124L31.7165 13.7212C30.4601 12.4648 28.4231 12.4648 27.1667 13.7212C25.9104 14.9776 25.9104 17.0145 27.1668 18.2709L38.4702 29.5743" stroke="#3F3831" stroke-width="2" stroke-linecap="round"/>
<path d="M37.6224 29.0386L43.6223 28.5376L42.1223 33.5376L31.1223 38.0376L37.6224 29.0386Z" fill="white"/>
<path d="M38.7188 29.8229L35.7542 26.8584C34.6591 25.7633 32.8836 25.7633 31.7885 26.8584C30.6934 27.9535 30.6934 29.729 31.7885 30.8241L35.055 34.0906" fill="white"/>
<path d="M38.7188 29.8229L35.7542 26.8584C34.6591 25.7633 32.8836 25.7633 31.7885 26.8584C30.6934 27.9535 30.6934 29.729 31.7885 30.8241L35.055 34.0906" stroke="#3F3831" stroke-width="2" stroke-linecap="round" stroke-linejoin="round"/>
<path d="M35.2357 34.2369L33.2199 32.2211C32.1248 31.1261 30.3493 31.1261 29.2542 32.2211C28.1591 33.3162 28.1591 35.0918 29.2542 36.1869L31.514 38.4467" fill="white"/>
<path d="M35.2357 34.2369L33.2199 32.2211C32.1248 31.1261 30.3493 31.1261 29.2542 32.2211C28.1591 33.3162 28.1591 35.0918 29.2542 36.1869L31.514 38.4467" stroke="#3F3831" stroke-width="2" stroke-linecap="round" stroke-linejoin="round"/>
<path d="M26.9924 18.9224L10.729 35.1858L26.9924 18.9224Z" fill="white"/>
<path d="M26.9924 18.9224L10.729 35.1858" stroke="#3F3831" stroke-width="2" stroke-linecap="round"/>
<path d="M17.4465 34.8322L15.2073 34.9501L10.729 35.1858L10.9646 30.7075L11.0825 28.4683" stroke="#3F3831" stroke-width="2" stroke-linecap="round" stroke-linejoin="round"/>
</g>
<defs>
<clipPath id="clip0_5_14583">
<rect width="48" height="48" fill="white" transform="matrix(-0.707107 0.707107 0.707107 0.707107 34.0635 0.537598)"/>
</clipPath>
</defs>
</svg>
