<svg width="127" height="140" viewBox="0 0 127 140" fill="none" xmlns="http://www.w3.org/2000/svg">
    <path d="M10.533 137.287C11.557 137.287 12.565 137.119 13.557 136.783C14.565 136.431 15.469 135.903 16.269 135.199C17.085 134.479 17.733 133.583 18.213 132.511C18.693 131.423 18.933 130.151 18.933 128.695V126.799H10.437V129.919H15.213V129.967C15.213 130.799 14.989 131.511 14.541 132.103C14.109 132.695 13.533 133.151 12.813 133.471C12.109 133.775 11.349 133.927 10.533 133.927C9.47703 133.927 8.54103 133.679 7.72503 133.183C6.92503 132.687 6.29303 131.999 5.82903 131.119C5.36503 130.239 5.13303 129.215 5.13303 128.047C5.13303 126.879 5.34903 125.863 5.78103 124.999C6.22903 124.119 6.85303 123.431 7.65303 122.935C8.45303 122.439 9.38103 122.191 10.437 122.191C11.525 122.191 12.445 122.479 13.197 123.055C13.965 123.615 14.501 124.327 14.805 125.191L18.093 123.607C17.789 122.727 17.277 121.927 16.557 121.207C15.837 120.487 14.957 119.911 13.917 119.479C12.893 119.047 11.733 118.831 10.437 118.831C9.14103 118.831 7.94103 119.063 6.83703 119.527C5.74903 119.975 4.79703 120.615 3.98103 121.447C3.16503 122.263 2.53303 123.239 2.08503 124.375C1.63703 125.495 1.41303 126.719 1.41303 128.047C1.41303 129.375 1.64503 130.599 2.10903 131.719C2.57303 132.839 3.22103 133.815 4.05303 134.647C4.88503 135.479 5.85303 136.127 6.95703 136.591C8.06103 137.055 9.25303 137.287 10.533 137.287ZM31.3821 137.287C32.7261 137.287 33.9741 137.055 35.1261 136.591C36.2781 136.127 37.2781 135.479 38.1261 134.647C38.9901 133.799 39.6621 132.815 40.1421 131.695C40.6221 130.575 40.8621 129.359 40.8621 128.047C40.8621 126.735 40.6221 125.519 40.1421 124.399C39.6781 123.279 39.0141 122.303 38.1501 121.471C37.3021 120.639 36.3021 119.991 35.1501 119.527C33.9981 119.063 32.7421 118.831 31.3821 118.831C30.0221 118.831 28.7661 119.063 27.6141 119.527C26.4621 119.991 25.4541 120.639 24.5901 121.471C23.7421 122.303 23.0781 123.279 22.5981 124.399C22.1341 125.519 21.9021 126.735 21.9021 128.047C21.9021 129.359 22.1421 130.575 22.6221 131.695C23.1021 132.815 23.7661 133.799 24.6141 134.647C25.4781 135.479 26.4861 136.127 27.6381 136.591C28.7901 137.055 30.0381 137.287 31.3821 137.287ZM31.3821 133.927C30.2941 133.927 29.3101 133.679 28.4301 133.183C27.5661 132.671 26.8781 131.975 26.3661 131.095C25.8701 130.215 25.6221 129.199 25.6221 128.047C25.6221 126.895 25.8701 125.879 26.3661 124.999C26.8781 124.119 27.5661 123.431 28.4301 122.935C29.3101 122.439 30.2941 122.191 31.3821 122.191C32.4701 122.191 33.4461 122.439 34.3101 122.935C35.1901 123.431 35.8781 124.119 36.3741 124.999C36.8861 125.879 37.1421 126.895 37.1421 128.047C37.1421 129.199 36.8861 130.215 36.3741 131.095C35.8781 131.975 35.1901 132.671 34.3101 133.183C33.4461 133.679 32.4701 133.927 31.3821 133.927ZM47.1898 136.999H50.9098V122.359H55.3738V119.119H42.6538V122.359H47.1898V136.999ZM61.632 136.999H65.352V122.359H69.816V119.119H57.096V122.359H61.632V136.999ZM80.6277 137.287C81.9237 137.287 83.0837 137.071 84.1077 136.639C85.1477 136.207 86.0277 135.631 86.7477 134.911C87.4677 134.191 87.9797 133.391 88.2837 132.511L84.9957 130.927C84.6917 131.791 84.1557 132.511 83.3877 133.087C82.6357 133.647 81.7157 133.927 80.6277 133.927C79.5717 133.927 78.6437 133.679 77.8437 133.183C77.0437 132.687 76.4197 131.999 75.9717 131.119C75.5397 130.239 75.3237 129.215 75.3237 128.047C75.3237 126.879 75.5397 125.863 75.9717 124.999C76.4197 124.119 77.0437 123.431 77.8437 122.935C78.6437 122.439 79.5717 122.191 80.6277 122.191C81.7157 122.191 82.6357 122.479 83.3877 123.055C84.1557 123.615 84.6917 124.327 84.9957 125.191L88.2837 123.607C87.9797 122.727 87.4677 121.927 86.7477 121.207C86.0277 120.487 85.1477 119.911 84.1077 119.479C83.0837 119.047 81.9237 118.831 80.6277 118.831C79.3317 118.831 78.1317 119.063 77.0277 119.527C75.9397 119.975 74.9877 120.615 74.1717 121.447C73.3557 122.263 72.7237 123.239 72.2757 124.375C71.8277 125.495 71.6037 126.719 71.6037 128.047C71.6037 129.375 71.8277 130.599 72.2757 131.719C72.7397 132.839 73.3797 133.815 74.1957 134.647C75.0117 135.479 75.9637 136.127 77.0517 136.591C78.1557 137.055 79.3477 137.287 80.6277 137.287ZM91.8707 136.999H95.5907V130.087H102.551V136.999H106.271V119.119H102.551V126.847H95.5907V119.119H91.8707V136.999ZM109.329 136.999H113.361L114.561 133.351H121.113L122.313 136.999H126.369L120.321 119.119H115.377L109.329 136.999ZM115.593 130.111L117.849 123.223L120.081 130.111H115.593Z" fill="#3F3831"/>
    <g clip-path="url(#clip0_5_1549)">
        <path d="M63.7263 70.0467C67.4344 70.0837 70.7602 69.4174 73.9543 68.1003C77.1271 66.7894 79.9357 64.9232 82.3864 62.4925C84.4669 60.4258 86.1833 58.1031 87.5019 55.4781C88.8818 52.7267 89.7599 49.8241 90.1178 46.7611C90.2463 45.6753 90.3504 44.5833 90.3351 43.4914C90.2922 39.759 89.5885 36.1655 88.0802 32.7385C87.0369 30.3664 85.6815 28.201 84.0079 26.2331C83.653 25.8167 83.3501 25.3694 83.0931 24.882C82.0468 22.911 80.8964 21.0078 79.6971 19.1292C78.8037 17.7319 77.9072 16.3346 77.0781 14.8972C76.0746 13.1606 75.2148 11.3561 74.4591 9.49914C74.3857 9.31715 74.2236 9.10739 74.3979 8.93466C74.5356 8.79893 74.7437 8.91923 74.9119 8.97167C76.2918 9.41277 77.6349 9.9464 78.9536 10.5541C81.9734 11.9452 84.7453 13.7312 87.2786 15.8935C89.6558 17.9201 91.718 20.2366 93.5047 22.8061C95.4231 25.5668 96.9284 28.5404 98.0145 31.7267C98.7794 33.9723 99.3362 36.2704 99.6452 38.627C99.7829 39.6881 99.9053 40.7492 99.9206 41.8226C99.9267 42.3007 100.006 42.7758 100.003 43.2539C99.9818 45.3298 99.8135 47.3903 99.4464 49.4354C98.8406 52.7945 97.782 56.0025 96.3899 59.1087C94.9335 62.3568 93.1437 65.4105 91.1397 68.344C89.4845 70.7685 87.6763 73.0727 85.7702 75.2936C83.6102 77.8106 81.3186 80.2043 78.9169 82.4838C75.1812 86.0341 71.2466 89.347 67.0948 92.3946C66.5839 92.7709 66.073 93.1472 65.5467 93.502C64.8094 94.0017 64.0078 94.1189 63.1511 93.8598C62.888 93.7796 62.6524 93.6531 62.4291 93.4927C60.4098 92.0707 58.4455 90.5747 56.5272 89.0139C54.3978 87.2834 52.3265 85.4882 50.3133 83.622C48.2971 81.7558 46.3512 79.8218 44.4849 77.8075C41.1316 74.1893 38.0599 70.3428 35.4195 66.157C32.9352 62.2149 30.8883 58.0661 29.5482 53.5842C28.9333 51.5299 28.4805 49.4416 28.2449 47.307C28.1011 46.0177 28.0001 44.7252 28.0062 43.4235C28.0185 41.07 28.2479 38.7411 28.7008 36.4338C29.3341 33.1981 30.3927 30.1042 31.8704 27.1585C33.1616 24.5859 34.7342 22.2015 36.5974 20.0114C39.9935 16.02 44.0443 12.8737 48.7835 10.6435C51.7696 9.23695 54.8904 8.25913 58.1426 7.73166C59.2563 7.54967 60.3822 7.46022 61.5051 7.33067C61.5938 7.32141 61.6856 7.32758 61.7743 7.33992C61.9456 7.36151 62.0497 7.48181 62.0558 7.66689C62.0588 7.78102 62.0558 7.89515 62.0344 8.00619C61.8477 8.99326 61.7743 9.99267 61.6856 10.989C61.6519 11.3684 61.4959 11.572 61.1471 11.6676C60.8412 11.7509 60.5474 11.8681 60.2415 11.9514C58.3293 12.4758 56.6802 13.4875 55.1657 14.746C53.4646 16.1588 52.1551 17.8831 51.1608 19.8541C50.968 20.2335 50.7233 20.5235 50.3561 20.7425C48.9151 21.6062 47.5903 22.6272 46.339 23.7531C43.8087 26.0264 41.82 28.71 40.3209 31.7638C39.1307 34.1882 38.3475 36.7485 37.9253 39.4228C37.6071 41.437 37.555 43.4667 37.6958 45.4871C37.9283 48.837 38.7789 52.0326 40.2413 55.0617C41.7527 58.1957 43.7781 60.9379 46.3481 63.2606C49.2822 65.9164 52.6447 67.8258 56.4324 68.964C57.7786 69.3681 59.1462 69.6611 60.5352 69.8493C61.6733 70.0066 62.8237 70.0837 63.7263 70.0467Z" fill="#3F3831"/>
        <path d="M52.0083 30.0487C51.9349 28.4046 52.0726 26.8223 52.3999 25.2553C52.9109 22.8061 53.8838 20.5729 55.5054 18.6573C56.7231 17.2199 58.161 16.057 59.8927 15.2951C59.9968 15.2488 60.1008 15.2087 60.2079 15.1717C60.3333 15.1285 60.4465 15.2211 60.419 15.3445C60.3976 15.4339 60.37 15.5203 60.3394 15.6036C59.7214 17.3741 59.3543 19.2033 59.1126 21.0571C58.8984 22.6858 58.8647 24.3299 58.9657 25.9678C59.0758 27.7476 59.4032 29.4904 60.1406 31.1345C60.4679 31.8656 60.8687 32.5473 61.3674 33.1704C61.5938 33.4541 61.8723 33.6886 62.1629 33.9076C63.4081 34.8453 65.097 34.5862 66.0363 33.8829C66.486 33.5467 66.8134 33.1179 67.0429 32.6182C67.4896 31.6466 67.615 30.6225 67.5324 29.5552C67.4161 28.0438 66.9664 26.6094 66.5595 25.1627C65.9108 22.8585 65.3968 20.5235 65.0634 18.1545C64.8951 16.9608 64.7452 15.764 64.7237 14.5548C64.7115 13.8978 64.5983 13.2408 64.6289 12.5776C64.7207 10.5294 64.8798 8.48741 65.4274 6.49784C65.8894 4.81674 66.5717 3.23743 67.5722 1.80617C67.9913 1.20468 68.5053 0.695719 69.0316 0.196014C69.0958 0.134322 69.1754 0.0849687 69.2519 0.0356151C69.3804 -0.0445844 69.5425 0.0171075 69.5762 0.155914C69.5976 0.242283 69.6159 0.334821 69.619 0.424274C69.6282 0.606265 69.6312 0.788257 69.6282 0.970248C69.6037 3.22509 70.0412 5.40898 70.6562 7.55895C71.5863 10.8194 73.0396 13.8484 74.7162 16.7757C75.4872 18.1175 76.3439 19.4038 77.1638 20.7117C78.5039 22.8493 79.8011 25.0116 80.976 27.2479C82.2396 29.6477 83.3165 32.1247 84.1518 34.7096C84.7973 36.7084 85.2379 38.7535 85.4766 40.8417C85.6357 42.2236 85.7091 43.6117 85.6265 45.0029C85.4735 47.6402 84.8952 50.1819 83.855 52.6126C82.9983 54.6176 81.8694 56.4529 80.4528 58.0939C78.8741 59.9261 77.0659 61.4993 74.9762 62.7331C72.3848 64.26 69.6098 65.2131 66.6298 65.5864C65.1184 65.7745 63.604 65.7745 62.0987 65.6635C59.599 65.4784 57.2095 64.806 54.9302 63.748C53.2383 62.9614 51.6748 61.9681 50.2307 60.7837C48.3399 59.229 46.7765 57.3814 45.5038 55.2869C43.922 52.6866 42.9552 49.8642 42.5329 46.8475C42.328 45.3761 42.3004 43.8924 42.4044 42.4149C42.5115 40.8911 42.8205 39.3951 43.2642 37.9299C43.9954 35.5177 45.0081 33.2382 46.443 31.1654C46.8438 30.5885 47.2875 30.0395 47.7219 29.4873C47.8168 29.364 47.9453 29.2653 48.0738 29.1727C48.1319 29.1326 48.2237 29.1758 48.2206 29.2529C48.2145 29.5028 48.2084 29.7557 48.1686 29.9994C48.0034 31.0728 48.2145 32.0846 48.649 33.0562C48.8845 33.5837 49.2333 34.0279 49.7534 34.3117C50.298 34.6078 50.7998 34.5492 51.2465 34.1235C51.5525 33.8335 51.7391 33.4726 51.837 33.0655C51.9318 32.6676 52.0053 32.2635 52.0022 31.8501C52.0022 31.2363 52.0083 30.6194 52.0083 30.0487Z" fill="#FF8743"/>
    </g>
    <defs>
        <clipPath id="clip0_5_1549">
            <rect width="72" height="94" fill="white" transform="translate(28)"/>
        </clipPath>
    </defs>
</svg>
