<svg width="66" height="87" viewBox="0 0 66 87" fill="none" xmlns="http://www.w3.org/2000/svg">
<g clip-path="url(#clip0_5_1596)">
<path d="M32.749 64.2107C36.1481 64.2446 39.1967 63.6339 42.1247 62.4265C45.033 61.2248 47.6076 59.5141 49.8541 57.286C51.7612 55.3916 53.3346 53.2624 54.5433 50.8562C55.8082 48.334 56.6131 45.6733 56.9412 42.8655C57.059 41.8702 57.1544 40.8693 57.1404 39.8683C57.1011 36.447 56.456 33.1529 55.0734 30.0115C54.117 27.8371 52.8746 25.8522 51.3405 24.0482C51.0152 23.6665 50.7375 23.2565 50.5019 22.8097C49.5428 21.0029 48.4883 19.2583 47.3889 17.5364C46.5699 16.2555 45.7482 14.9746 44.9882 13.657C44.0682 12.0651 43.2802 10.411 42.5874 8.70877C42.5201 8.54194 42.3715 8.34967 42.5313 8.19133C42.6575 8.06692 42.8483 8.17719 43.0025 8.22526C44.2674 8.6296 45.4986 9.11876 46.7073 9.67579C49.4755 10.951 52.0164 12.5882 54.3386 14.5703C56.5177 16.428 58.408 18.5515 60.0459 20.9068C61.8044 23.4375 63.1842 26.1632 64.1798 29.0841C64.881 31.1425 65.3914 33.2491 65.6747 35.4093C65.8009 36.382 65.9131 37.3546 65.9271 38.3386C65.9327 38.7769 66.0056 39.2123 66.0028 39.6506C65.9832 41.5536 65.8289 43.4424 65.4924 45.317C64.9371 48.3962 63.9667 51.3369 62.6906 54.1842C61.3556 57.1616 59.715 59.9609 57.878 62.6499C56.3607 64.8723 54.7032 66.9845 52.9559 69.0203C50.9759 71.3276 48.8753 73.5218 46.6737 75.6114C43.2493 78.8659 39.6426 81.9026 35.8368 84.6963C35.3685 85.0412 34.9001 85.3862 34.4177 85.7114C33.7418 86.1694 33.007 86.2769 32.2217 86.0394C31.9805 85.9658 31.7646 85.8499 31.5599 85.7029C29.7088 84.3994 27.9083 83.028 26.1498 81.5973C24.1979 80.011 22.2992 78.3654 20.4538 76.6547C18.6055 74.9441 16.8218 73.1712 15.111 71.3248C12.0372 68.0081 9.22144 64.4821 6.80109 60.6451C4.52378 57.0315 2.64752 53.2285 1.41912 49.1201C0.855398 47.2369 0.440322 45.3227 0.22437 43.366C0.0925546 42.1841 3.73274e-06 40.9994 0.00561288 39.8061C0.0168312 37.6487 0.227174 35.5139 0.642251 33.3989C1.2228 30.4328 2.19318 27.5968 3.54779 24.8965C4.73132 22.5383 6.17287 20.3526 7.88085 18.345C10.9939 14.6862 14.7072 11.8021 19.0515 9.75779C21.7887 8.46843 24.6494 7.57209 27.6306 7.08858C28.6515 6.92176 29.6836 6.83976 30.7129 6.721C30.7942 6.71252 30.8783 6.71818 30.9597 6.72949C31.1167 6.74928 31.2121 6.85955 31.2177 7.02921C31.2205 7.13383 31.2177 7.23844 31.1981 7.34024C31.027 8.24505 30.9597 9.16118 30.8783 10.0745C30.8475 10.4223 30.7045 10.6089 30.3847 10.6965C30.1043 10.7729 29.835 10.8803 29.5546 10.9567C27.8017 11.4374 26.2901 12.3648 24.9018 13.5184C23.3425 14.8134 22.1421 16.394 21.2306 18.2008C21.0539 18.5486 20.8296 18.8144 20.493 19.0152C19.1721 19.8069 17.9577 20.7428 16.8106 21.7749C14.4912 23.8588 12.6683 26.3187 11.294 29.118C10.203 31.3405 9.48507 33.6873 9.09804 36.1388C8.80636 37.9852 8.75868 39.8457 8.88769 41.6978C9.10084 44.7685 9.88051 47.6978 11.2211 50.4745C12.6066 53.3473 14.4632 55.8609 16.819 57.9901C19.5086 60.4246 22.5908 62.1749 26.0629 63.2182C27.2969 63.5886 28.5506 63.8572 29.8238 64.0297C30.8671 64.1739 31.9216 64.2446 32.749 64.2107Z" fill="#3F3831"/>
<path d="M22.0075 27.5459C21.9402 26.0388 22.0664 24.5883 22.3665 23.1519C22.8349 20.9068 23.7267 18.8597 25.2131 17.1038C26.3294 15.7861 27.6475 14.7202 29.2349 14.0217C29.3303 13.9793 29.4256 13.9426 29.5238 13.9086C29.6388 13.8691 29.7425 13.9539 29.7173 14.067C29.6977 14.149 29.6724 14.2282 29.6444 14.3045C29.0778 15.9275 28.7413 17.6042 28.5197 19.3036C28.3234 20.7966 28.2926 22.3036 28.3851 23.8051C28.4861 25.4366 28.7862 27.0341 29.4621 28.5412C29.7622 29.2113 30.1296 29.8362 30.5867 30.4074C30.7942 30.6675 31.0495 30.8824 31.3159 31.0832C32.4574 31.9427 34.0055 31.7052 34.8665 31.0605C35.2788 30.7523 35.5788 30.3593 35.7892 29.9013C36.1987 29.0106 36.3136 28.0718 36.2379 27.0935C36.1313 25.708 35.7191 24.3932 35.3461 23.0671C34.7515 20.9549 34.2803 18.8144 33.9746 16.6429C33.8204 15.5486 33.683 14.4515 33.6633 13.3431C33.6521 12.7409 33.5483 12.1386 33.5764 11.5307C33.6605 9.65319 33.8064 7.78135 34.3084 5.95759C34.7319 4.41657 35.3573 2.96887 36.2744 1.65689C36.6586 1.10552 37.1298 0.63897 37.6122 0.180907C37.6711 0.124356 37.744 0.0791156 37.8141 0.0338749C37.9319 -0.0396413 38.0805 0.0169096 38.1114 0.144149C38.131 0.223321 38.1478 0.308147 38.1506 0.390146C38.159 0.556971 38.1619 0.723796 38.159 0.890622C38.1366 2.95756 38.5377 4.95946 39.1014 6.93026C39.954 9.91898 41.2861 12.6956 42.8231 15.379C43.5298 16.609 44.3151 17.788 45.0667 18.9869C46.2951 20.9464 47.4843 22.9285 48.5612 24.9785C49.7195 27.1783 50.7067 29.4488 51.4724 31.8183C52.0641 33.6506 52.468 35.5252 52.6867 37.4395C52.8326 38.7062 52.8999 39.9786 52.8242 41.2539C52.6839 43.6714 52.1539 46.0013 51.2003 48.2294C50.415 50.0673 49.3801 51.7497 48.0816 53.254C46.6345 54.9335 44.977 56.3756 43.0614 57.5066C40.686 58.9062 38.1422 59.7799 35.4106 60.1221C34.0251 60.2946 32.6368 60.2946 31.257 60.1928C28.9657 60.0231 26.7753 59.4067 24.6859 58.4369C23.135 57.7158 21.7018 56.8054 20.3781 55.7196C18.6448 54.2945 17.2117 52.6008 16.045 50.6809C14.595 48.2973 13.7088 45.7101 13.3218 42.9447C13.1339 41.596 13.1086 40.2359 13.204 38.8815C13.3021 37.4847 13.5854 36.1134 13.992 34.7703C14.6623 32.5591 15.5907 30.4696 16.906 28.5695C17.2734 28.0407 17.6801 27.5374 18.0783 27.0313C18.1653 26.9182 18.283 26.8277 18.4008 26.7429C18.4541 26.7061 18.5383 26.7457 18.5355 26.8164C18.5298 27.0454 18.5242 27.2773 18.4878 27.5007C18.3363 28.4847 18.5298 29.4121 18.9281 30.3028C19.144 30.7863 19.4638 31.1934 19.9405 31.4536C20.4398 31.725 20.8997 31.6713 21.3092 31.2811C21.5896 31.0153 21.7607 30.6845 21.8505 30.3112C21.9374 29.9465 22.0047 29.5761 22.0019 29.1972C22.0019 28.6345 22.0075 28.069 22.0075 27.5459Z" fill="#FF8743"/>
</g>
<defs>
<clipPath id="clip0_5_1596">
<rect width="66" height="86.1667" fill="white"/>
</clipPath>
</defs>
</svg>
