<svg width="26" height="33" viewBox="0 0 26 33" fill="none" xmlns="http://www.w3.org/2000/svg">
<path d="M16.7972 6.22021C18.493 6.22021 19.8805 4.87021 19.8805 3.22021C19.8805 1.57021 18.493 0.220215 16.7972 0.220215C15.1013 0.220215 13.7138 1.57021 13.7138 3.22021C13.7138 4.87021 15.1013 6.22021 16.7972 6.22021ZM11.9101 24.2202L12.7888 20.4702L16.0263 23.4702V30.9702C16.0263 31.7952 16.7201 32.4702 17.568 32.4702C18.4159 32.4702 19.1097 31.7952 19.1097 30.9702V22.5102C19.1097 21.6852 18.7705 20.9052 18.1538 20.3352L15.8722 18.2202L16.7972 13.7202C18.5345 15.6527 20.9128 16.9318 23.5188 17.3352C24.4438 17.4702 25.2763 16.7502 25.2763 15.8352C25.2763 15.1002 24.7213 14.4852 23.9659 14.3652C21.6226 13.9902 19.6801 12.6402 18.6472 10.8702L17.1055 8.47021C16.4888 7.57021 15.5638 6.97021 14.4847 6.97021C14.0222 6.97021 13.7138 7.12021 13.2513 7.12021L7.1155 9.64021C6.55697 9.8725 6.08092 10.2594 5.74653 10.7527C5.41213 11.2461 5.23413 11.8242 5.23467 12.4152V15.9702C5.23467 16.7952 5.92842 17.4702 6.77633 17.4702C7.62425 17.4702 8.318 16.7952 8.318 15.9702V12.3702L11.093 11.3202L8.62633 23.4702L2.583 22.2702C1.7505 22.1052 0.933416 22.6302 0.763832 23.4402V23.5002C0.594249 24.3102 1.13383 25.1052 1.96633 25.2702L8.30258 26.5002C9.09067 26.6524 9.9087 26.4993 10.5825 26.0734C11.2563 25.6476 11.7326 24.9827 11.9101 24.2202Z" fill="#3F3831"/>
</svg>
