<svg width="68" height="69" viewBox="0 0 68 69" fill="none" xmlns="http://www.w3.org/2000/svg">
<g clip-path="url(#clip0_5_14574)">
<path d="M26.0769 46.9654C25.6922 49.0073 26.4568 50.9851 28.3708 52.8991C31.2416 55.77 39.678 57.1482 42.8603 53.9659C46.0426 50.7836 47.8882 48.938 51.003 45.8233C54.1178 42.7085 53.2868 38.0938 51.1023 35.9093C48.1655 32.9725 45.2286 30.0356 42.2917 27.0987C41.0239 25.8309 38.9691 25.828 37.6977 27.0924C36.4308 28.3522 36.4251 30.4004 37.6849 31.6673C37.687 31.6694 37.6891 31.6715 37.6912 31.6737L37.763 31.7454" fill="white"/>
<path d="M26.0769 46.9654C25.6922 49.0073 26.4568 50.9851 28.3708 52.8991C31.2416 55.77 39.678 57.1482 42.8603 53.9659C46.0426 50.7836 47.8882 48.938 51.003 45.8233C54.1178 42.7085 53.2868 38.0938 51.1023 35.9093C48.1655 32.9725 45.2286 30.0356 42.2917 27.0987C41.0239 25.8309 38.9691 25.828 37.6977 27.0924C36.4308 28.3522 36.4251 30.4004 37.6849 31.6673C37.687 31.6694 37.6891 31.6715 37.6912 31.6737L37.763 31.7454" stroke="#3F3831" stroke-width="2" stroke-linecap="round"/>
<path d="M28.6651 47.5766L13.2623 32.1738C12.0059 30.9174 12.0059 28.8804 13.2623 27.624C14.5187 26.3676 16.5557 26.3677 17.812 27.6241L29.1154 38.9275" fill="white"/>
<path d="M28.6651 47.5766L13.2623 32.1738C12.0059 30.9174 12.0059 28.8804 13.2623 27.624C14.5187 26.3676 16.5557 26.3677 17.812 27.6241L29.1154 38.9275" stroke="#3F3831" stroke-width="2" stroke-linecap="round"/>
<path d="M28.5798 38.0797L28.0789 44.0795L33.0789 42.5796L37.5789 31.5796L28.5798 38.0797Z" fill="white"/>
<path d="M29.3644 39.1759L26.3999 36.2114C25.3048 35.1163 25.3048 33.3407 26.3999 32.2456C27.495 31.1506 29.2705 31.1506 30.3656 32.2456L33.6321 35.5122" fill="white"/>
<path d="M29.3644 39.1759L26.3999 36.2114C25.3048 35.1163 25.3048 33.3407 26.3999 32.2456C27.495 31.1506 29.2705 31.1506 30.3656 32.2456L33.6321 35.5122" stroke="#3F3831" stroke-width="2" stroke-linecap="round" stroke-linejoin="round"/>
<path d="M33.7783 35.693L31.7625 33.6772C30.6674 32.5821 30.6674 30.8066 31.7625 29.7115C32.8576 28.6164 34.6332 28.6164 35.7283 29.7115L37.988 31.9712" fill="white"/>
<path d="M33.7783 35.693L31.7625 33.6772C30.6674 32.5821 30.6674 30.8066 31.7625 29.7115C32.8576 28.6164 34.6332 28.6164 35.7283 29.7115L37.988 31.9712" stroke="#3F3831" stroke-width="2" stroke-linecap="round" stroke-linejoin="round"/>
<path d="M18.4639 27.4497L34.7273 11.1863L18.4639 27.4497Z" fill="white"/>
<path d="M18.4639 27.4497L34.7273 11.1863" stroke="#3F3831" stroke-width="2" stroke-linecap="round"/>
<path d="M34.3737 17.904L34.4916 15.6648L34.7273 11.1865L30.249 11.4222L28.0098 11.54" stroke="#3F3831" stroke-width="2" stroke-linecap="round" stroke-linejoin="round"/>
</g>
<defs>
<clipPath id="clip0_5_14574">
<rect width="48" height="48" fill="white" transform="translate(0.0791016 34.521) rotate(-45)"/>
</clipPath>
</defs>
</svg>
