<svg width="26" height="18" viewBox="0 0 26 18" fill="none" xmlns="http://www.w3.org/2000/svg">
    <path d="M20.6615 9.55664V10.6169C21.6176 10.6169 22.3669 11.4121 22.3669 12.3663H23.4005C23.4005 10.8024 22.186 9.55664 20.6615 9.55664Z" fill="url(#paint0_linear_503_721)"/>
    <path d="M5.49353 9.55664V10.6169C6.4496 10.6169 7.19896 11.4121 7.19896 12.3663H8.23255C8.23255 10.8024 6.99224 9.55664 5.49353 9.55664Z" fill="url(#paint1_linear_503_721)"/>
    <path d="M24.9767 9.42415L21.3333 2.02897C20.8165 0.968731 19.7312 0.253069 18.4909 0.253069C17.0697 0.253069 15.8552 1.20729 15.4418 2.53259H15.416L15.8552 8.735L14.5374 10.0868L14.0981 2.63861C13.5813 2.69162 13.5813 2.71813 12.987 2.71813C12.3669 2.71813 12.2894 2.69162 11.7726 2.63861L11.3333 10.0868L10.0413 8.735L10.5064 2.29403C10.0413 1.10126 8.8785 0.226562 7.56067 0.226562C6.32036 0.226562 5.26093 0.942225 4.71829 2.00247L1.04904 9.42415C0.532245 10.2723 0.222168 11.2531 0.222168 12.3398C0.222168 15.3085 2.57359 17.7205 5.46765 17.7205C7.94827 17.7205 10.0413 15.9446 10.5839 13.5591C11.2558 13.4531 12.1085 13.3736 13.0129 13.3736C13.9431 13.3736 14.7958 13.4531 15.4676 13.5591C16.0103 15.9446 18.0775 17.7205 20.5839 17.7205C23.478 17.7205 25.8294 15.3085 25.8294 12.3398C25.8294 11.2796 25.5193 10.2723 24.9767 9.42415ZM5.49349 16.3952C3.32294 16.3952 1.56584 14.5928 1.56584 12.3663C1.54 10.1398 3.32294 8.33741 5.49349 8.33741C7.66403 8.33741 9.42113 10.1398 9.42113 12.3663C9.42113 14.5928 7.66403 16.3952 5.49349 16.3952ZM20.6614 16.3952C18.4909 16.3952 16.7338 14.5928 16.7338 12.3663C16.7338 10.1398 18.4909 8.33741 20.6614 8.33741C22.832 8.33741 24.5891 10.1398 24.5891 12.3663C24.5891 14.5928 22.832 16.3952 20.6614 16.3952Z" fill="url(#paint2_linear_503_721)"/>
    <defs>
        <linearGradient id="paint0_linear_503_721" x1="23.708" y1="11.9917" x2="20.5834" y2="11.9051" gradientUnits="userSpaceOnUse">
            <stop stop-color="#FF3389"/>
            <stop offset="1" stop-color="#FF7527"/>
        </linearGradient>
        <linearGradient id="paint1_linear_503_721" x1="8.53999" y1="11.9917" x2="5.41547" y2="11.9051" gradientUnits="userSpaceOnUse">
            <stop stop-color="#FF3389"/>
            <stop offset="1" stop-color="#FF7527"/>
        </linearGradient>
        <linearGradient id="paint2_linear_503_721" x1="28.7037" y1="15.388" x2="-0.479539" y2="14.1736" gradientUnits="userSpaceOnUse">
            <stop stop-color="#FF3389"/>
            <stop offset="1" stop-color="#FF7527"/>
        </linearGradient>
    </defs>
</svg>
