<svg width="229" height="50" viewBox="0 0 229 50" fill="none" xmlns="http://www.w3.org/2000/svg">
<g filter="url(#filter0_b_5_47642)">
<rect width="229" height="50" rx="24" fill="#3F3831" fill-opacity="0.6"/>
<path d="M20 25L26 31L36 19" stroke="white" stroke-width="2" stroke-linecap="round" stroke-linejoin="round"/>
<path d="M49.8772 33H59.4772V31.5H51.4772V26.28H59.0772V24.78H51.4772V19.6H59.4772V18.1H49.8772V33ZM64.7633 33H66.2633L70.4833 22.28H68.7833L65.5233 30.96L62.2633 22.28H60.5833L64.7633 33ZM76.92 33.24C77.6533 33.24 78.32 33.12 78.92 32.88C79.5333 32.6267 80.06 32.3 80.5 31.9C80.94 31.4867 81.2667 31.04 81.48 30.56L80.2 29.88C79.8667 30.44 79.4333 30.9067 78.9 31.28C78.3667 31.6533 77.7067 31.84 76.92 31.84C76.28 31.84 75.68 31.6867 75.12 31.38C74.56 31.0733 74.1 30.6467 73.74 30.1C73.3933 29.54 73.2067 28.8733 73.18 28.1H81.62C81.6467 27.9267 81.6667 27.76 81.68 27.6C81.6933 27.4267 81.7 27.2733 81.7 27.14C81.7 26.5 81.5867 25.88 81.36 25.28C81.1333 24.6667 80.8067 24.12 80.38 23.64C79.9533 23.1467 79.4333 22.76 78.82 22.48C78.22 22.1867 77.5333 22.04 76.76 22.04C75.7867 22.04 74.9067 22.28 74.12 22.76C73.3467 23.24 72.7333 23.9 72.28 24.74C71.8267 25.5667 71.6 26.52 71.6 27.6C71.6 28.68 71.8333 29.6467 72.3 30.5C72.7667 31.3533 73.4 32.0267 74.2 32.52C75.0133 33 75.92 33.24 76.92 33.24ZM76.76 23.44C77.36 23.44 77.9067 23.58 78.4 23.86C78.9067 24.14 79.3067 24.5267 79.6 25.02C79.9067 25.5 80.0667 26.06 80.08 26.7H73.22C73.3 26.0333 73.5067 25.46 73.84 24.98C74.1867 24.4867 74.6133 24.1067 75.12 23.84C75.6267 23.5733 76.1733 23.44 76.76 23.44ZM84.3447 33H85.8447V26.4C85.8447 25.52 86.078 24.84 86.5447 24.36C87.0114 23.88 87.6314 23.64 88.4047 23.64H89.3447V22.14H88.6647C88.0114 22.14 87.4447 22.2533 86.9647 22.48C86.498 22.7067 86.1247 23.0267 85.8447 23.44V22.28H84.3447V33ZM91.3225 37.4C92.0292 37.4 92.6292 37.2533 93.1225 36.96C93.6158 36.68 94.0225 36.3067 94.3425 35.84C94.6758 35.3733 94.9492 34.88 95.1625 34.36L100.063 22.26H98.4025L94.9025 31.12L91.4025 22.26H89.7825L94.0625 33L93.6825 33.92C93.3492 34.6933 93.0092 35.2133 92.6625 35.48C92.3158 35.76 91.8158 35.9 91.1625 35.9C90.9492 35.9 90.7358 35.88 90.5225 35.84C90.3225 35.8133 90.1558 35.7933 90.0225 35.78V37.18C90.2358 37.26 90.4492 37.3133 90.6625 37.34C90.8892 37.38 91.1092 37.4 91.3225 37.4ZM106.65 33.24C107.65 33.24 108.557 33 109.37 32.52C110.197 32.04 110.857 31.38 111.35 30.54C111.843 29.6867 112.09 28.7133 112.09 27.62C112.09 26.54 111.85 25.58 111.37 24.74C110.903 23.9 110.257 23.24 109.43 22.76C108.617 22.28 107.69 22.04 106.65 22.04C105.61 22.04 104.677 22.2867 103.85 22.78C103.037 23.26 102.39 23.92 101.91 24.76C101.43 25.6 101.19 26.5533 101.19 27.62C101.19 28.7 101.43 29.6667 101.91 30.52C102.403 31.36 103.063 32.0267 103.89 32.52C104.717 33 105.637 33.24 106.65 33.24ZM106.65 31.74C105.93 31.74 105.277 31.56 104.69 31.2C104.117 30.84 103.657 30.3467 103.31 29.72C102.963 29.0933 102.79 28.3933 102.79 27.62C102.79 26.8467 102.963 26.1533 103.31 25.54C103.657 24.9267 104.117 24.44 104.69 24.08C105.277 23.72 105.93 23.54 106.65 23.54C107.37 23.54 108.017 23.72 108.59 24.08C109.177 24.44 109.637 24.9267 109.97 25.54C110.317 26.1533 110.49 26.8467 110.49 27.62C110.49 28.3933 110.317 29.0933 109.97 29.72C109.637 30.3467 109.177 30.84 108.59 31.2C108.017 31.56 107.37 31.74 106.65 31.74ZM114.735 33H116.235V26.62C116.235 25.66 116.502 24.9067 117.035 24.36C117.569 23.8133 118.242 23.54 119.055 23.54C119.882 23.54 120.549 23.8133 121.055 24.36C121.575 24.8933 121.835 25.6467 121.835 26.62V33H123.335V26.04C123.335 25.28 123.155 24.6 122.795 24C122.449 23.3867 121.969 22.9067 121.355 22.56C120.755 22.2133 120.075 22.04 119.315 22.04C118.649 22.04 118.049 22.18 117.515 22.46C116.982 22.74 116.555 23.12 116.235 23.6V22.28H114.735V33ZM131.08 33.24C131.813 33.24 132.48 33.12 133.08 32.88C133.693 32.6267 134.22 32.3 134.66 31.9C135.1 31.4867 135.427 31.04 135.64 30.56L134.36 29.88C134.027 30.44 133.593 30.9067 133.06 31.28C132.527 31.6533 131.867 31.84 131.08 31.84C130.44 31.84 129.84 31.6867 129.28 31.38C128.72 31.0733 128.26 30.6467 127.9 30.1C127.553 29.54 127.367 28.8733 127.34 28.1H135.78C135.807 27.9267 135.827 27.76 135.84 27.6C135.853 27.4267 135.86 27.2733 135.86 27.14C135.86 26.5 135.747 25.88 135.52 25.28C135.293 24.6667 134.967 24.12 134.54 23.64C134.113 23.1467 133.593 22.76 132.98 22.48C132.38 22.1867 131.693 22.04 130.92 22.04C129.947 22.04 129.067 22.28 128.28 22.76C127.507 23.24 126.893 23.9 126.44 24.74C125.987 25.5667 125.76 26.52 125.76 27.6C125.76 28.68 125.993 29.6467 126.46 30.5C126.927 31.3533 127.56 32.0267 128.36 32.52C129.173 33 130.08 33.24 131.08 33.24ZM130.92 23.44C131.52 23.44 132.067 23.58 132.56 23.86C133.067 24.14 133.467 24.5267 133.76 25.02C134.067 25.5 134.227 26.06 134.24 26.7H127.38C127.46 26.0333 127.667 25.46 128 24.98C128.347 24.4867 128.773 24.1067 129.28 23.84C129.787 23.5733 130.333 23.44 130.92 23.44ZM141.903 20.3H143.403V18.1H141.903V20.3ZM141.903 33H143.403V22.28H141.903V33ZM150.194 33.24C150.94 33.24 151.6 33.1133 152.174 32.86C152.747 32.5933 153.194 32.2267 153.514 31.76C153.847 31.2933 154.014 30.7667 154.014 30.18C154.014 29.46 153.767 28.8333 153.274 28.3C152.794 27.7667 152.12 27.3733 151.254 27.12L149.474 26.6C149.287 26.5467 149.067 26.4667 148.814 26.36C148.574 26.2533 148.36 26.0933 148.174 25.88C147.987 25.6667 147.894 25.38 147.894 25.02C147.894 24.5533 148.074 24.1667 148.434 23.86C148.794 23.5533 149.274 23.4 149.874 23.4C150.487 23.4 151.04 23.5733 151.534 23.92C152.04 24.2533 152.427 24.72 152.694 25.32L153.974 24.72C153.667 23.88 153.14 23.2267 152.394 22.76C151.66 22.28 150.84 22.04 149.934 22.04C149.267 22.04 148.66 22.1667 148.114 22.42C147.567 22.6733 147.134 23.0333 146.814 23.5C146.494 23.9667 146.334 24.5133 146.334 25.14C146.334 25.8067 146.554 26.3933 146.994 26.9C147.434 27.4067 148.147 27.8 149.134 28.08L150.674 28.52C150.887 28.5733 151.134 28.66 151.414 28.78C151.694 28.9 151.94 29.0733 152.154 29.3C152.367 29.5133 152.474 29.8067 152.474 30.18C152.474 30.6867 152.254 31.1 151.814 31.42C151.374 31.7267 150.834 31.88 150.194 31.88C149.527 31.88 148.914 31.6867 148.354 31.3C147.807 30.9133 147.38 30.3933 147.074 29.74L145.814 30.34C146.16 31.2333 146.72 31.94 147.494 32.46C148.267 32.98 149.167 33.24 150.194 33.24ZM160.048 33H161.548V26.4C161.548 25.52 161.781 24.84 162.248 24.36C162.714 23.88 163.334 23.64 164.108 23.64H165.048V22.14H164.368C163.714 22.14 163.148 22.2533 162.668 22.48C162.201 22.7067 161.828 23.0267 161.548 23.44V22.28H160.048V33ZM171.686 33.24C172.419 33.24 173.086 33.12 173.686 32.88C174.299 32.6267 174.826 32.3 175.266 31.9C175.706 31.4867 176.032 31.04 176.246 30.56L174.966 29.88C174.632 30.44 174.199 30.9067 173.666 31.28C173.132 31.6533 172.472 31.84 171.686 31.84C171.046 31.84 170.446 31.6867 169.886 31.38C169.326 31.0733 168.866 30.6467 168.506 30.1C168.159 29.54 167.972 28.8733 167.946 28.1H176.386C176.412 27.9267 176.432 27.76 176.446 27.6C176.459 27.4267 176.466 27.2733 176.466 27.14C176.466 26.5 176.352 25.88 176.126 25.28C175.899 24.6667 175.572 24.12 175.146 23.64C174.719 23.1467 174.199 22.76 173.586 22.48C172.986 22.1867 172.299 22.04 171.526 22.04C170.552 22.04 169.672 22.28 168.886 22.76C168.112 23.24 167.499 23.9 167.046 24.74C166.592 25.5667 166.366 26.52 166.366 27.6C166.366 28.68 166.599 29.6467 167.066 30.5C167.532 31.3533 168.166 32.0267 168.966 32.52C169.779 33 170.686 33.24 171.686 33.24ZM171.526 23.44C172.126 23.44 172.672 23.58 173.166 23.86C173.672 24.14 174.072 24.5267 174.366 25.02C174.672 25.5 174.832 26.06 174.846 26.7H167.986C168.066 26.0333 168.272 25.46 168.606 24.98C168.952 24.4867 169.379 24.1067 169.886 23.84C170.392 23.5733 170.939 23.44 171.526 23.44ZM182.015 33.24C182.842 33.24 183.588 33.0733 184.255 32.74C184.922 32.4067 185.428 31.98 185.775 31.46V33H187.275V25.64C187.275 24.9333 187.102 24.3133 186.755 23.78C186.422 23.2333 185.948 22.8067 185.335 22.5C184.735 22.1933 184.042 22.04 183.255 22.04C182.655 22.04 182.075 22.1533 181.515 22.38C180.955 22.5933 180.455 22.8867 180.015 23.26C179.588 23.6333 179.275 24.0467 179.075 24.5L180.435 25.24C180.675 24.72 181.042 24.3 181.535 23.98C182.028 23.6467 182.602 23.48 183.255 23.48C184.002 23.48 184.608 23.68 185.075 24.08C185.542 24.48 185.775 25 185.775 25.64V26.2L181.895 26.84C180.708 27.04 179.842 27.4467 179.295 28.06C178.748 28.6733 178.475 29.3933 178.475 30.22C178.475 30.8067 178.628 31.3267 178.935 31.78C179.242 32.2333 179.662 32.5933 180.195 32.86C180.728 33.1133 181.335 33.24 182.015 33.24ZM180.075 30.16C180.075 29.6667 180.242 29.24 180.575 28.88C180.922 28.52 181.482 28.2733 182.255 28.14L185.775 27.56V28.36C185.775 29.0133 185.622 29.6067 185.315 30.14C185.008 30.6733 184.582 31.1 184.035 31.42C183.488 31.7267 182.848 31.88 182.115 31.88C181.515 31.88 181.022 31.7133 180.635 31.38C180.262 31.0467 180.075 30.64 180.075 30.16ZM195.2 33.24C196.027 33.24 196.787 33.0667 197.48 32.72C198.174 32.3733 198.72 31.8867 199.12 31.26V33H200.62V17.86H199.12V23.9C198.68 23.3267 198.127 22.8733 197.46 22.54C196.794 22.2067 196.04 22.04 195.2 22.04C194.187 22.04 193.28 22.2867 192.48 22.78C191.694 23.26 191.067 23.92 190.6 24.76C190.147 25.6 189.92 26.56 189.92 27.64C189.92 28.7067 190.147 29.6667 190.6 30.52C191.067 31.36 191.7 32.0267 192.5 32.52C193.3 33 194.2 33.24 195.2 33.24ZM195.28 31.74C194.56 31.74 193.914 31.56 193.34 31.2C192.78 30.84 192.334 30.3533 192 29.74C191.68 29.1133 191.52 28.4133 191.52 27.64C191.52 26.8533 191.68 26.1533 192 25.54C192.334 24.9267 192.787 24.44 193.36 24.08C193.934 23.72 194.574 23.54 195.28 23.54C196 23.54 196.647 23.72 197.22 24.08C197.807 24.44 198.267 24.9333 198.6 25.56C198.947 26.1733 199.12 26.8667 199.12 27.64C199.12 28.4133 198.947 29.1133 198.6 29.74C198.267 30.3533 197.807 30.84 197.22 31.2C196.647 31.56 196 31.74 195.28 31.74ZM203.92 37.4C204.627 37.4 205.227 37.2533 205.72 36.96C206.213 36.68 206.62 36.3067 206.94 35.84C207.273 35.3733 207.547 34.88 207.76 34.36L212.66 22.26H211L207.5 31.12L204 22.26H202.38L206.66 33L206.28 33.92C205.947 34.6933 205.607 35.2133 205.26 35.48C204.913 35.76 204.413 35.9 203.76 35.9C203.547 35.9 203.333 35.88 203.12 35.84C202.92 35.8133 202.753 35.7933 202.62 35.78V37.18C202.833 37.26 203.047 37.3133 203.26 37.34C203.487 37.38 203.707 37.4 203.92 37.4Z" fill="white"/>
</g>
<defs>
<filter id="filter0_b_5_47642" x="-20" y="-20" width="269" height="90" filterUnits="userSpaceOnUse" color-interpolation-filters="sRGB">
<feFlood flood-opacity="0" result="BackgroundImageFix"/>
<feGaussianBlur in="BackgroundImageFix" stdDeviation="10"/>
<feComposite in2="SourceAlpha" operator="in" result="effect1_backgroundBlur_5_47642"/>
<feBlend mode="normal" in="SourceGraphic" in2="effect1_backgroundBlur_5_47642" result="shape"/>
</filter>
</defs>
</svg>
