<svg width="20" height="15" viewBox="0 0 20 15" fill="none" xmlns="http://www.w3.org/2000/svg">
<mask id="path-1-inside-1_364_79" fill="white">
<path d="M0 1C0 0.734784 0.105357 0.48043 0.292893 0.292893C0.48043 0.105357 0.734784 0 1 0H19C19.2652 0 19.5196 0.105357 19.7071 0.292893C19.8946 0.48043 20 0.734784 20 1C20 1.26522 19.8946 1.51957 19.7071 1.70711C19.5196 1.89464 19.2652 2 19 2H1C0.734784 2 0.48043 1.89464 0.292893 1.70711C0.105357 1.51957 0 1.26522 0 1ZM0 7.032C0 6.76678 0.105357 6.51243 0.292893 6.32489C0.48043 6.13736 0.734784 6.032 1 6.032H19C19.2652 6.032 19.5196 6.13736 19.7071 6.32489C19.8946 6.51243 20 6.76678 20 7.032C20 7.29722 19.8946 7.55157 19.7071 7.73911C19.5196 7.92664 19.2652 8.032 19 8.032H1C0.734784 8.032 0.48043 7.92664 0.292893 7.73911C0.105357 7.55157 0 7.29722 0 7.032ZM1 12.064C0.734784 12.064 0.48043 12.1694 0.292893 12.3569C0.105357 12.5444 0 12.7988 0 13.064C0 13.3292 0.105357 13.5836 0.292893 13.7711C0.48043 13.9586 0.734784 14.064 1 14.064H19C19.2652 14.064 19.5196 13.9586 19.7071 13.7711C19.8946 13.5836 20 13.3292 20 13.064C20 12.7988 19.8946 12.5444 19.7071 12.3569C19.5196 12.1694 19.2652 12.064 19 12.064H1Z"/>
</mask>
<path d="M1 0V3V0ZM0 13.064H-3H0ZM3 1C3 1.53043 2.78929 2.03914 2.41421 2.41421L-1.82843 -1.82843C-2.57857 -1.07828 -3 -0.0608662 -3 1H3ZM2.41421 2.41421C2.03914 2.78929 1.53043 3 1 3V-3C-0.0608673 -3 -1.07828 -2.57857 -1.82843 -1.82843L2.41421 2.41421ZM1 3H19V-3H1V3ZM19 3C18.4696 3 17.9609 2.78929 17.5858 2.41421L21.8284 -1.82843C21.0783 -2.57857 20.0609 -3 19 -3V3ZM17.5858 2.41421C17.2107 2.03914 17 1.53043 17 1H23C23 -0.0608607 22.5786 -1.07828 21.8284 -1.82843L17.5858 2.41421ZM17 1C17 0.469572 17.2107 -0.0391373 17.5858 -0.414214L21.8284 3.82843C22.5786 3.07828 23 2.06086 23 1H17ZM17.5858 -0.414214C17.9609 -0.789287 18.4696 -1 19 -1V5C20.0609 5 21.0783 4.57857 21.8284 3.82843L17.5858 -0.414214ZM19 -1H1V5H19V-1ZM1 -1C1.53043 -1 2.03914 -0.789286 2.41421 -0.414214L-1.82843 3.82843C-1.07828 4.57857 -0.0608673 5 1 5V-1ZM2.41421 -0.414214C2.78929 -0.0391412 3 0.469567 3 1H-3C-3 2.06087 -2.57857 3.07828 -1.82843 3.82843L2.41421 -0.414214ZM3 7.032C3 7.56243 2.78929 8.07114 2.41421 8.44621L-1.82843 4.20357C-2.57857 4.95372 -3 5.97113 -3 7.032H3ZM2.41421 8.44621C2.03914 8.82129 1.53043 9.032 1 9.032V3.032C-0.0608673 3.032 -1.07828 3.45343 -1.82843 4.20357L2.41421 8.44621ZM1 9.032H19V3.032H1V9.032ZM19 9.032C18.4696 9.032 17.9609 8.82129 17.5858 8.44621L21.8284 4.20357C21.0783 3.45343 20.0609 3.032 19 3.032V9.032ZM17.5858 8.44621C17.2107 8.07114 17 7.56243 17 7.032H23C23 5.97114 22.5786 4.95372 21.8284 4.20357L17.5858 8.44621ZM17 7.032C17 6.50157 17.2107 5.99287 17.5858 5.61779L21.8284 9.86043C22.5786 9.11028 23 8.09286 23 7.032H17ZM17.5858 5.61779C17.9609 5.24271 18.4696 5.032 19 5.032V11.032C20.0609 11.032 21.0783 10.6106 21.8284 9.86043L17.5858 5.61779ZM19 5.032H1V11.032H19V5.032ZM1 5.032C1.53043 5.032 2.03914 5.24271 2.41421 5.61779L-1.82843 9.86043C-1.07828 10.6106 -0.06086 11.032 1 11.032V5.032ZM2.41421 5.61779C2.78929 5.99286 3 6.50157 3 7.032H-3C-3 8.09286 -2.57857 9.11028 -1.82843 9.86043L2.41421 5.61779ZM1 9.064C-0.0608746 9.064 -1.07829 9.48543 -1.82843 10.2356L2.41421 14.4782C2.03915 14.8533 1.53044 15.064 1 15.064V9.064ZM-1.82843 10.2356C-2.57857 10.9857 -3 12.0031 -3 13.064H3C3 13.5944 2.78928 14.1031 2.41421 14.4782L-1.82843 10.2356ZM-3 13.064C-3 14.1249 -2.57857 15.1423 -1.82843 15.8924L2.41421 11.6498C2.78929 12.0249 3 12.5336 3 13.064H-3ZM-1.82843 15.8924C-1.07828 16.6426 -0.06086 17.064 1 17.064V11.064C1.53043 11.064 2.03914 11.2747 2.41421 11.6498L-1.82843 15.8924ZM1 17.064H19V11.064H1V17.064ZM19 17.064C20.0609 17.064 21.0783 16.6426 21.8284 15.8924L17.5858 11.6498C17.9609 11.2747 18.4696 11.064 19 11.064V17.064ZM21.8284 15.8924C22.5786 15.1423 23 14.1249 23 13.064H17C17 12.5336 17.2107 12.0249 17.5858 11.6498L21.8284 15.8924ZM23 13.064C23 12.0031 22.5786 10.9857 21.8284 10.2356L17.5858 14.4782C17.2107 14.1031 17 13.5944 17 13.064H23ZM21.8284 10.2356C21.0783 9.48543 20.0609 9.064 19 9.064V15.064C18.4696 15.064 17.9609 14.8533 17.5858 14.4782L21.8284 10.2356ZM19 9.064H1V15.064H19V9.064Z" fill="#FF8743" mask="url(#path-1-inside-1_364_79)"/>
</svg>
