<svg width="233" height="50" viewBox="0 0 233 50" fill="none" xmlns="http://www.w3.org/2000/svg">
<g filter="url(#filter0_b_5_48133)">
<rect width="233" height="50" rx="24" fill="#3F3831" fill-opacity="0.6"/>
<path opacity="0.2" d="M28 15C26.0222 15 24.0888 15.5865 22.4443 16.6853C20.7998 17.7841 19.5181 19.3459 18.7612 21.1732C18.0043 23.0004 17.8063 25.0111 18.1922 26.9509C18.578 28.8907 19.5304 30.6725 20.9289 32.0711C22.3275 33.4696 24.1093 34.422 26.0491 34.8079C27.9889 35.1937 29.9996 34.9957 31.8268 34.2388C33.6541 33.4819 35.2159 32.2002 36.3147 30.5557C37.4135 28.9112 38 26.9778 38 25C38 23.6868 37.7413 22.3864 37.2388 21.1732C36.7363 19.9599 35.9997 18.8575 35.0711 17.9289C34.1425 17.0003 33.0401 16.2638 31.8268 15.7612C30.6136 15.2587 29.3132 15 28 15V15ZM28 33C26.4178 33 24.871 32.5308 23.5554 31.6518C22.2398 30.7727 21.2145 29.5233 20.609 28.0615C20.0035 26.5997 19.845 24.9911 20.1537 23.4393C20.4624 21.8874 21.2243 20.462 22.3432 19.3431C23.462 18.2243 24.8874 17.4624 26.4393 17.1537C27.9911 16.845 29.5997 17.0035 31.0615 17.609C32.5233 18.2145 33.7727 19.2398 34.6518 20.5554C35.5308 21.871 36 23.4177 36 25C36 27.1217 35.1572 29.1566 33.6569 30.6569C32.1566 32.1571 30.1217 33 28 33V33Z" fill="white"/>
<path d="M36 25H38C38 23.6868 37.7413 22.3864 37.2388 21.1732C36.7362 19.9599 35.9997 18.8575 35.0711 17.9289C34.1425 17.0003 33.0401 16.2638 31.8268 15.7612C30.6136 15.2587 29.3132 15 28 15V17C30.1217 17 32.1566 17.8429 33.6569 19.3431C35.1571 20.8434 36 22.8783 36 25Z" fill="white"/>
<path d="M52.7813 33H54.4813L58.1213 20.24L61.7613 33H63.4613L67.7413 18.1H66.1213L62.5813 30.8L58.9813 18.1H57.2813L53.6613 30.84L50.1213 18.1H48.5013L52.7813 33ZM71.808 33.24C72.6346 33.24 73.3813 33.0733 74.048 32.74C74.7146 32.4067 75.2213 31.98 75.568 31.46V33H77.068V25.64C77.068 24.9333 76.8946 24.3133 76.548 23.78C76.2146 23.2333 75.7413 22.8067 75.128 22.5C74.528 22.1933 73.8346 22.04 73.048 22.04C72.448 22.04 71.868 22.1533 71.308 22.38C70.748 22.5933 70.248 22.8867 69.808 23.26C69.3813 23.6333 69.068 24.0467 68.868 24.5L70.228 25.24C70.468 24.72 70.8346 24.3 71.328 23.98C71.8213 23.6467 72.3946 23.48 73.048 23.48C73.7946 23.48 74.4013 23.68 74.868 24.08C75.3346 24.48 75.568 25 75.568 25.64V26.2L71.688 26.84C70.5013 27.04 69.6346 27.4467 69.088 28.06C68.5413 28.6733 68.268 29.3933 68.268 30.22C68.268 30.8067 68.4213 31.3267 68.728 31.78C69.0346 32.2333 69.4546 32.5933 69.988 32.86C70.5213 33.1133 71.128 33.24 71.808 33.24ZM69.868 30.16C69.868 29.6667 70.0346 29.24 70.368 28.88C70.7146 28.52 71.2746 28.2733 72.048 28.14L75.568 27.56V28.36C75.568 29.0133 75.4146 29.6067 75.108 30.14C74.8013 30.6733 74.3746 31.1 73.828 31.42C73.2813 31.7267 72.6413 31.88 71.908 31.88C71.308 31.88 70.8146 31.7133 70.428 31.38C70.0546 31.0467 69.868 30.64 69.868 30.16ZM80.1533 20.3H81.6533V18.1H80.1533V20.3ZM80.1533 33H81.6533V22.28H80.1533V33ZM88.8236 33.12C88.9436 33.12 89.1036 33.1133 89.3036 33.1C89.5036 33.0867 89.6836 33.06 89.8436 33.02V31.66C89.7369 31.6733 89.6103 31.6867 89.4636 31.7C89.3169 31.7133 89.1903 31.72 89.0836 31.72C88.4169 31.72 87.9569 31.5467 87.7036 31.2C87.4503 30.8533 87.3236 30.4133 87.3236 29.88V23.78H89.6836V22.28H87.3236V19.8H85.8236V20.7C85.8236 21.1533 85.6903 21.5333 85.4236 21.84C85.1569 22.1333 84.7969 22.28 84.3436 22.28H83.8436V23.78H85.8236V29.88C85.8236 30.92 86.0836 31.72 86.6036 32.28C87.1236 32.84 87.8636 33.12 88.8236 33.12ZM92.4775 20.3H93.9775V18.1H92.4775V20.3ZM92.4775 33H93.9775V22.28H92.4775V33ZM97.0478 33H98.5478V26.62C98.5478 25.66 98.8145 24.9067 99.3478 24.36C99.8811 23.8133 100.554 23.54 101.368 23.54C102.194 23.54 102.861 23.8133 103.368 24.36C103.888 24.8933 104.148 25.6467 104.148 26.62V33H105.648V26.04C105.648 25.28 105.468 24.6 105.108 24C104.761 23.3867 104.281 22.9067 103.668 22.56C103.068 22.2133 102.388 22.04 101.628 22.04C100.961 22.04 100.361 22.18 99.8278 22.46C99.2945 22.74 98.8678 23.12 98.5478 23.6V22.28H97.0478V33ZM113.593 37.4C114.579 37.4 115.453 37.1867 116.213 36.76C116.986 36.3467 117.586 35.7733 118.013 35.04C118.453 34.32 118.673 33.5 118.673 32.58V22.28H117.173V23.9C116.746 23.3267 116.199 22.8733 115.533 22.54C114.866 22.2067 114.139 22.04 113.353 22.04C112.339 22.04 111.433 22.28 110.633 22.76C109.846 23.24 109.219 23.8867 108.753 24.7C108.299 25.5133 108.073 26.4267 108.073 27.44C108.073 28.44 108.299 29.3533 108.753 30.18C109.219 30.9933 109.853 31.64 110.653 32.12C111.453 32.6 112.353 32.84 113.353 32.84C114.139 32.84 114.873 32.6667 115.553 32.32C116.233 31.9733 116.773 31.4867 117.173 30.86V32.58C117.173 33.3 117.006 33.9067 116.673 34.4C116.339 34.8933 115.899 35.2667 115.353 35.52C114.806 35.7733 114.206 35.9 113.553 35.9C112.699 35.9 111.999 35.7133 111.453 35.34C110.906 34.9667 110.526 34.5267 110.313 34.02L108.933 34.76C109.293 35.5333 109.879 36.1667 110.693 36.66C111.519 37.1533 112.486 37.4 113.593 37.4ZM113.433 31.34C112.713 31.34 112.066 31.1667 111.493 30.82C110.933 30.46 110.486 29.9867 110.153 29.4C109.833 28.8 109.673 28.1467 109.673 27.44C109.673 26.72 109.833 26.0667 110.153 25.48C110.486 24.8933 110.939 24.4267 111.513 24.08C112.086 23.72 112.726 23.54 113.433 23.54C114.126 23.54 114.753 23.72 115.313 24.08C115.873 24.4267 116.319 24.9 116.653 25.5C116.999 26.0867 117.173 26.7333 117.173 27.44C117.173 28.1467 116.999 28.8 116.653 29.4C116.319 29.9867 115.873 30.46 115.313 30.82C114.753 31.1667 114.126 31.34 113.433 31.34ZM128.253 33.24C129.08 33.24 129.827 33.0733 130.493 32.74C131.16 32.4067 131.667 31.98 132.013 31.46V33H133.513V25.64C133.513 24.9333 133.34 24.3133 132.993 23.78C132.66 23.2333 132.187 22.8067 131.573 22.5C130.973 22.1933 130.28 22.04 129.493 22.04C128.893 22.04 128.313 22.1533 127.753 22.38C127.193 22.5933 126.693 22.8867 126.253 23.26C125.827 23.6333 125.513 24.0467 125.313 24.5L126.673 25.24C126.913 24.72 127.28 24.3 127.773 23.98C128.267 23.6467 128.84 23.48 129.493 23.48C130.24 23.48 130.847 23.68 131.313 24.08C131.78 24.48 132.013 25 132.013 25.64V26.2L128.133 26.84C126.947 27.04 126.08 27.4467 125.533 28.06C124.987 28.6733 124.713 29.3933 124.713 30.22C124.713 30.8067 124.867 31.3267 125.173 31.78C125.48 32.2333 125.9 32.5933 126.433 32.86C126.967 33.1133 127.573 33.24 128.253 33.24ZM126.313 30.16C126.313 29.6667 126.48 29.24 126.813 28.88C127.16 28.52 127.72 28.2733 128.493 28.14L132.013 27.56V28.36C132.013 29.0133 131.86 29.6067 131.553 30.14C131.247 30.6733 130.82 31.1 130.273 31.42C129.727 31.7267 129.087 31.88 128.353 31.88C127.753 31.88 127.26 31.7133 126.873 31.38C126.5 31.0467 126.313 30.64 126.313 30.16ZM136.599 33H138.099V17.86H136.599V33ZM141.169 33H142.669V17.86H141.169V33ZM149.138 37H150.638V31.26C151.038 31.8867 151.584 32.3733 152.278 32.72C152.971 33.0667 153.731 33.24 154.558 33.24C155.571 33.24 156.471 33 157.258 32.52C158.058 32.0267 158.684 31.36 159.138 30.52C159.604 29.6667 159.838 28.7067 159.838 27.64C159.838 26.56 159.604 25.6 159.138 24.76C158.684 23.92 158.058 23.26 157.258 22.78C156.471 22.2867 155.571 22.04 154.558 22.04C153.718 22.04 152.964 22.2067 152.298 22.54C151.631 22.8733 151.078 23.3267 150.638 23.9V22.28H149.138V37ZM154.478 31.74C153.758 31.74 153.104 31.56 152.518 31.2C151.944 30.84 151.484 30.3533 151.138 29.74C150.804 29.1133 150.638 28.4133 150.638 27.64C150.638 26.8667 150.804 26.1733 151.138 25.56C151.484 24.9333 151.944 24.44 152.518 24.08C153.104 23.72 153.758 23.54 154.478 23.54C155.198 23.54 155.838 23.72 156.398 24.08C156.971 24.44 157.418 24.9267 157.738 25.54C158.071 26.1533 158.238 26.8533 158.238 27.64C158.238 28.4133 158.071 29.1133 157.738 29.74C157.418 30.3533 156.971 30.84 156.398 31.2C155.838 31.56 155.198 31.74 154.478 31.74ZM162.478 33H163.978V17.86H162.478V33ZM170.148 33.24C170.974 33.24 171.721 33.0733 172.388 32.74C173.054 32.4067 173.561 31.98 173.908 31.46V33H175.408V25.64C175.408 24.9333 175.234 24.3133 174.888 23.78C174.554 23.2333 174.081 22.8067 173.468 22.5C172.868 22.1933 172.174 22.04 171.388 22.04C170.788 22.04 170.208 22.1533 169.648 22.38C169.088 22.5933 168.588 22.8867 168.148 23.26C167.721 23.6333 167.408 24.0467 167.208 24.5L168.568 25.24C168.808 24.72 169.174 24.3 169.668 23.98C170.161 23.6467 170.734 23.48 171.388 23.48C172.134 23.48 172.741 23.68 173.208 24.08C173.674 24.48 173.908 25 173.908 25.64V26.2L170.028 26.84C168.841 27.04 167.974 27.4467 167.428 28.06C166.881 28.6733 166.608 29.3933 166.608 30.22C166.608 30.8067 166.761 31.3267 167.068 31.78C167.374 32.2333 167.794 32.5933 168.328 32.86C168.861 33.1133 169.468 33.24 170.148 33.24ZM168.208 30.16C168.208 29.6667 168.374 29.24 168.708 28.88C169.054 28.52 169.614 28.2733 170.388 28.14L173.908 27.56V28.36C173.908 29.0133 173.754 29.6067 173.448 30.14C173.141 30.6733 172.714 31.1 172.168 31.42C171.621 31.7267 170.981 31.88 170.248 31.88C169.648 31.88 169.154 31.7133 168.768 31.38C168.394 31.0467 168.208 30.64 168.208 30.16ZM178.713 37.4C179.42 37.4 180.02 37.2533 180.513 36.96C181.006 36.68 181.413 36.3067 181.733 35.84C182.066 35.3733 182.34 34.88 182.553 34.36L187.453 22.26H185.793L182.293 31.12L178.793 22.26H177.173L181.453 33L181.073 33.92C180.74 34.6933 180.4 35.2133 180.053 35.48C179.706 35.76 179.206 35.9 178.553 35.9C178.34 35.9 178.126 35.88 177.913 35.84C177.713 35.8133 177.546 35.7933 177.413 35.78V37.18C177.626 37.26 177.84 37.3133 178.053 37.34C178.28 37.38 178.5 37.4 178.713 37.4ZM193.9 33.24C194.634 33.24 195.3 33.12 195.9 32.88C196.514 32.6267 197.04 32.3 197.48 31.9C197.92 31.4867 198.247 31.04 198.46 30.56L197.18 29.88C196.847 30.44 196.414 30.9067 195.88 31.28C195.347 31.6533 194.687 31.84 193.9 31.84C193.26 31.84 192.66 31.6867 192.1 31.38C191.54 31.0733 191.08 30.6467 190.72 30.1C190.374 29.54 190.187 28.8733 190.16 28.1H198.6C198.627 27.9267 198.647 27.76 198.66 27.6C198.674 27.4267 198.68 27.2733 198.68 27.14C198.68 26.5 198.567 25.88 198.34 25.28C198.114 24.6667 197.787 24.12 197.36 23.64C196.934 23.1467 196.414 22.76 195.8 22.48C195.2 22.1867 194.514 22.04 193.74 22.04C192.767 22.04 191.887 22.28 191.1 22.76C190.327 23.24 189.714 23.9 189.26 24.74C188.807 25.5667 188.58 26.52 188.58 27.6C188.58 28.68 188.814 29.6467 189.28 30.5C189.747 31.3533 190.38 32.0267 191.18 32.52C191.994 33 192.9 33.24 193.9 33.24ZM193.74 23.44C194.34 23.44 194.887 23.58 195.38 23.86C195.887 24.14 196.287 24.5267 196.58 25.02C196.887 25.5 197.047 26.06 197.06 26.7H190.2C190.28 26.0333 190.487 25.46 190.82 24.98C191.167 24.4867 191.594 24.1067 192.1 23.84C192.607 23.5733 193.154 23.44 193.74 23.44ZM201.325 33H202.825V26.4C202.825 25.52 203.058 24.84 203.525 24.36C203.992 23.88 204.612 23.64 205.385 23.64H206.325V22.14H205.645C204.992 22.14 204.425 22.2533 203.945 22.48C203.478 22.7067 203.105 23.0267 202.825 23.44V22.28H201.325V33ZM211.803 33.24C212.55 33.24 213.21 33.1133 213.783 32.86C214.356 32.5933 214.803 32.2267 215.123 31.76C215.456 31.2933 215.623 30.7667 215.623 30.18C215.623 29.46 215.376 28.8333 214.883 28.3C214.403 27.7667 213.73 27.3733 212.863 27.12L211.083 26.6C210.896 26.5467 210.676 26.4667 210.423 26.36C210.183 26.2533 209.97 26.0933 209.783 25.88C209.596 25.6667 209.503 25.38 209.503 25.02C209.503 24.5533 209.683 24.1667 210.043 23.86C210.403 23.5533 210.883 23.4 211.483 23.4C212.096 23.4 212.65 23.5733 213.143 23.92C213.65 24.2533 214.036 24.72 214.303 25.32L215.583 24.72C215.276 23.88 214.75 23.2267 214.003 22.76C213.27 22.28 212.45 22.04 211.543 22.04C210.876 22.04 210.27 22.1667 209.723 22.42C209.176 22.6733 208.743 23.0333 208.423 23.5C208.103 23.9667 207.943 24.5133 207.943 25.14C207.943 25.8067 208.163 26.3933 208.603 26.9C209.043 27.4067 209.756 27.8 210.743 28.08L212.283 28.52C212.496 28.5733 212.743 28.66 213.023 28.78C213.303 28.9 213.55 29.0733 213.763 29.3C213.976 29.5133 214.083 29.8067 214.083 30.18C214.083 30.6867 213.863 31.1 213.423 31.42C212.983 31.7267 212.443 31.88 211.803 31.88C211.136 31.88 210.523 31.6867 209.963 31.3C209.416 30.9133 208.99 30.3933 208.683 29.74L207.423 30.34C207.77 31.2333 208.33 31.94 209.103 32.46C209.876 32.98 210.776 33.24 211.803 33.24Z" fill="white"/>
</g>
<defs>
<filter id="filter0_b_5_48133" x="-20" y="-20" width="273" height="90" filterUnits="userSpaceOnUse" color-interpolation-filters="sRGB">
<feFlood flood-opacity="0" result="BackgroundImageFix"/>
<feGaussianBlur in="BackgroundImageFix" stdDeviation="10"/>
<feComposite in2="SourceAlpha" operator="in" result="effect1_backgroundBlur_5_48133"/>
<feBlend mode="normal" in="SourceGraphic" in2="effect1_backgroundBlur_5_48133" result="shape"/>
</filter>
</defs>
</svg>
